<svg version="1.1" viewBox="0.0 0.0 376.0 253.0" fill="none" stroke="none" stroke-linecap="square" stroke-miterlimit="10" width="376" height="253" xmlns:xlink="http://www.w3.org/1999/xlink" xmlns="http://www.w3.org/2000/svg"><path fill="#ffffff" fill-opacity="0.0" d="M0 0L376.0 0L376.0 253.0L0 253.0L0 0Z" fill-rule="nonzero"/><path stroke="#333333" stroke-width="1.0" stroke-linecap="butt" d="M63.5 12.5L63.5 188.5" fill-rule="nonzero"/><path stroke="#cccccc" stroke-width="1.0" stroke-linecap="butt" d="M138.5 12.5L138.5 188.5" fill-rule="nonzero"/><path stroke="#cccccc" stroke-width="1.0" stroke-linecap="butt" d="M213.5 12.5L213.5 188.5" fill-rule="nonzero"/><path stroke="#cccccc" stroke-width="1.0" stroke-linecap="butt" d="M288.5 12.5L288.5 188.5" fill-rule="nonzero"/><path stroke="#cccccc" stroke-width="1.0" stroke-linecap="butt" d="M363.5 12.5L363.5 188.5" fill-rule="nonzero"/><path stroke="#000000" stroke-width="1.0" stroke-linecap="butt" stroke-opacity="0.0" d="M88.5 12.5L88.5 188.5" fill-rule="nonzero"/><path stroke="#000000" stroke-width="1.0" stroke-linecap="butt" stroke-opacity="0.0" d="M113.5 12.5L113.5 188.5" fill-rule="nonzero"/><path stroke="#000000" stroke-width="1.0" stroke-linecap="butt" stroke-opacity="0.0" d="M163.5 12.5L163.5 188.5" fill-rule="nonzero"/><path stroke="#000000" stroke-width="1.0" stroke-linecap="butt" stroke-opacity="0.0" d="M188.5 12.5L188.5 188.5" fill-rule="nonzero"/><path stroke="#000000" stroke-width="1.0" stroke-linecap="butt" stroke-opacity="0.0" d="M238.5 12.5L238.5 188.5" fill-rule="nonzero"/><path stroke="#000000" stroke-width="1.0" stroke-linecap="butt" stroke-opacity="0.0" d="M263.5 12.5L263.5 188.5" fill-rule="nonzero"/><path stroke="#000000" stroke-width="1.0" stroke-linecap="butt" stroke-opacity="0.0" d="M313.5 12.5L313.5 188.5" fill-rule="nonzero"/><path stroke="#000000" stroke-width="1.0" stroke-linecap="butt" stroke-opacity="0.0" d="M338.5 12.5L338.5 188.5" fill-rule="nonzero"/><clipPath id="id_0"><path d="M63.65 12.65L363.35 12.65L363.35 188.35L63.65 188.35L63.65 12.65Z" clip-rule="nonzero"/></clipPath><path stroke="#000000" stroke-width="2.0" stroke-linecap="butt" stroke-opacity="0.0" clip-path="url(#id_0)" d="M64.0 88.0L64.0 39.0L152.0 39.0C153.10457 39.0 154.0 39.89543 154.0 41.0L154.0 86.0C154.0 87.10457 153.10457 88.0 152.0 88.0Z" fill-rule="nonzero"/><path fill="#6fa8dc" clip-path="url(#id_0)" d="M64.0 88.0L64.0 39.0L152.0 39.0C153.10457 39.0 154.0 39.89543 154.0 41.0L154.0 86.0C154.0 87.10457 153.10457 88.0 152.0 88.0Z" fill-rule="nonzero"/><path stroke="#000000" stroke-width="2.0" stroke-linecap="butt" stroke-opacity="0.0" clip-path="url(#id_0)" d="M64.0 163.0L64.0 114.0L339.0 114.0C340.10458 114.0 341.0 114.89543 341.0 116.0L341.0 161.0C341.0 162.10457 340.10458 163.0 339.0 163.0Z" fill-rule="nonzero"/><path fill="#6fa8dc" clip-path="url(#id_0)" d="M64.0 163.0L64.0 114.0L339.0 114.0C340.10458 114.0 341.0 114.89543 341.0 116.0L341.0 161.0C341.0 162.10457 340.10458 163.0 339.0 163.0Z" fill-rule="nonzero"/><path stroke="#6fa8dc" stroke-width="3.0" stroke-linejoin="round" stroke-linecap="round" d="M141.05687 67.5L135.46312 67.5L135.46312 66.71875L138.41624 63.4375Q139.0725 62.6875 139.3225 62.234375Q139.5725 61.765625 139.5725 61.265625Q139.5725 60.59375 139.16624 60.171875Q138.77562 59.734375 138.08812 59.734375Q137.29124 59.734375 136.83812 60.203125Q136.385 60.65625 136.385 61.484375L135.30687 61.484375Q135.30687 60.296875 136.05687 59.578125Q136.8225 58.84375 138.08812 58.84375Q139.29124 58.84375 139.97874 59.46875Q140.66624 60.09375 140.66624 61.140625Q140.66624 62.390625 139.05687 64.140625L136.77562 66.609375L141.05687 66.609375L141.05687 67.5ZM147.04124 64.640625L148.22874 64.640625L148.22874 65.515625L147.04124 65.515625L147.04124 67.5L145.96312 67.5L145.96312 65.515625L142.0725 65.515625L142.0725 64.875L145.885 58.96875L147.04124 58.96875L147.04124 64.640625ZM143.30687 64.640625L145.96312 64.640625L145.96312 60.453125L145.8225 60.6875L143.30687 64.640625Z" fill-rule="nonzero"/><path fill="#000000" d="M141.05687 67.5L135.46312 67.5L135.46312 66.71875L138.41624 63.4375Q139.0725 62.6875 139.3225 62.234375Q139.5725 61.765625 139.5725 61.265625Q139.5725 60.59375 139.16624 60.171875Q138.77562 59.734375 138.08812 59.734375Q137.29124 59.734375 136.83812 60.203125Q136.385 60.65625 136.385 61.484375L135.30687 61.484375Q135.30687 60.296875 136.05687 59.578125Q136.8225 58.84375 138.08812 58.84375Q139.29124 58.84375 139.97874 59.46875Q140.66624 60.09375 140.66624 61.140625Q140.66624 62.390625 139.05687 64.140625L136.77562 66.609375L141.05687 66.609375L141.05687 67.5ZM147.04124 64.640625L148.22874 64.640625L148.22874 65.515625L147.04124 65.515625L147.04124 67.5L145.96312 67.5L145.96312 65.515625L142.0725 65.515625L142.0725 64.875L145.885 58.96875L147.04124 58.96875L147.04124 64.640625ZM143.30687 64.640625L145.96312 64.640625L145.96312 60.453125L145.8225 60.6875L143.30687 64.640625Z" fill-rule="nonzero"/><path stroke="#6fa8dc" stroke-width="3.0" stroke-linejoin="round" stroke-linecap="round" d="M328.29126 134.57812L324.76 142.5L323.6194 142.5L327.135 134.85938L322.52563 134.85938L322.52563 133.96875L328.29126 133.96875L328.29126 134.57812ZM334.35376 139.64062L335.54126 139.64062L335.54126 140.51562L334.35376 140.51562L334.35376 142.5L333.27563 142.5L333.27563 140.51562L329.385 140.51562L329.385 139.875L333.1975 133.96875L334.35376 133.96875L334.35376 139.64062ZM330.6194 139.64062L333.27563 139.64062L333.27563 135.45312L333.135 135.6875L330.6194 139.64062Z" fill-rule="nonzero"/><path fill="#000000" d="M328.29126 134.57812L324.76 142.5L323.6194 142.5L327.135 134.85938L322.52563 134.85938L322.52563 133.96875L328.29126 133.96875L328.29126 134.57812ZM334.35376 139.64062L335.54126 139.64062L335.54126 140.51562L334.35376 140.51562L334.35376 142.5L333.27563 142.5L333.27563 140.51562L329.385 140.51562L329.385 139.875L333.1975 133.96875L334.35376 133.96875L334.35376 139.64062ZM330.6194 139.64062L333.27563 139.64062L333.27563 135.45312L333.135 135.6875L330.6194 139.64062Z" fill-rule="nonzero"/><path fill="#000000" d="M188.48438 237.35L191.78125 228.75626L193.0 228.75626L196.51562 237.35L195.23438 237.35L194.21875 234.74063L190.64062 234.74063L189.6875 237.35L188.48438 237.35ZM190.96875 233.81876L193.875 233.81876L192.98438 231.44376Q192.5625 230.36563 192.375 229.6625Q192.20312 230.49063 191.90625 231.30313L190.96875 233.81876ZM200.35938 235.06876L201.39062 235.20938Q201.21875 236.27188 200.51562 236.88126Q199.8125 237.49063 198.79688 237.49063Q197.51562 237.49063 196.73438 236.6625Q195.96875 235.81876 195.96875 234.25626Q195.96875 233.25626 196.29688 232.50626Q196.64062 231.74063 197.3125 231.36563Q198.0 230.99063 198.8125 230.99063Q199.8125 230.99063 200.45312 231.50626Q201.10938 232.00626 201.29688 232.95938L200.26562 233.11563Q200.125 232.49063 199.75 232.17813Q199.375 231.85 198.84375 231.85Q198.04688 231.85 197.54688 232.42813Q197.04688 232.99063 197.04688 234.225Q197.04688 235.49063 197.53125 236.05313Q198.01562 236.61563 198.78125 236.61563Q199.40625 236.61563 199.8125 236.24063Q200.23438 235.86563 200.35938 235.06876ZM206.35938 235.06876L207.39062 235.20938Q207.21875 236.27188 206.51562 236.88126Q205.8125 237.49063 204.79688 237.49063Q203.51562 237.49063 202.73438 236.6625Q201.96875 235.81876 201.96875 234.25626Q201.96875 233.25626 202.29688 232.50626Q202.64062 231.74063 203.3125 231.36563Q204.0 230.99063 204.8125 230.99063Q205.8125 230.99063 206.45312 231.50626Q207.10938 232.00626 207.29688 232.95938L206.26562 233.11563Q206.125 232.49063 205.75 232.17813Q205.375 231.85 204.84375 231.85Q204.04688 231.85 203.54688 232.42813Q203.04688 232.99063 203.04688 234.225Q203.04688 235.49063 203.53125 236.05313Q204.01562 236.61563 204.78125 236.61563Q205.40625 236.61563 205.8125 236.24063Q206.23438 235.86563 206.35938 235.06876ZM207.90625 234.24063Q207.90625 232.50626 208.85938 231.67813Q209.65625 230.99063 210.8125 230.99063Q212.09375 230.99063 212.90625 231.83438Q213.73438 232.6625 213.73438 234.14688Q213.73438 235.35 213.375 236.0375Q213.01562 236.725 212.3125 237.11563Q211.625 237.49063 210.8125 237.49063Q209.51562 237.49063 208.70312 236.6625Q207.90625 235.81876 207.90625 234.24063ZM208.98438 234.24063Q208.98438 235.42813 209.5 236.02188Q210.03125 236.61563 210.8125 236.61563Q211.60938 236.61563 212.125 236.02188Q212.64062 235.42813 212.64062 234.20938Q212.64062 233.05313 212.10938 232.45938Q211.59375 231.86563 210.8125 231.86563Q210.03125 231.86563 209.5 232.45938Q208.98438 233.0375 208.98438 234.24063ZM219.375 237.35L219.375 236.42813Q218.64062 237.49063 217.39062 237.49063Q216.84375 237.49063 216.35938 237.2875Q215.89062 237.06876 215.65625 236.75626Q215.42188 236.42813 215.32812 235.95938Q215.26562 235.6625 215.26562 234.975L215.26562 231.13126L216.32812 231.13126L216.32812 234.58438Q216.32812 235.39688 216.39062 235.69376Q216.48438 236.1 216.79688 236.35Q217.125 236.58438 217.60938 236.58438Q218.07812 236.58438 218.48438 236.35Q218.90625 236.1 219.07812 235.67813Q219.26562 235.25626 219.26562 234.45938L219.26562 231.13126L220.3125 231.13126L220.3125 237.35L219.375 237.35ZM222.29688 237.35L222.29688 231.13126L223.23438 231.13126L223.23438 232.00626Q223.92188 230.99063 225.21875 230.99063Q225.78125 230.99063 226.25 231.19376Q226.73438 231.39688 226.96875 231.725Q227.20312 232.05313 227.29688 232.49063Q227.34375 232.7875 227.34375 233.52188L227.34375 237.35L226.29688 237.35L226.29688 233.56876Q226.29688 232.9125 226.17188 232.6Q226.04688 232.2875 225.73438 232.1Q225.42188 231.89688 225.0 231.89688Q224.32812 231.89688 223.82812 232.33438Q223.34375 232.75626 223.34375 233.94376L223.34375 237.35L222.29688 237.35ZM231.59375 236.4125L231.75 237.33438Q231.29688 237.42813 230.95312 237.42813Q230.375 237.42813 230.0625 237.25626Q229.75 237.06876 229.60938 236.77188Q229.48438 236.475 229.48438 235.52188L229.48438 231.94376L228.71875 231.94376L228.71875 231.13126L229.48438 231.13126L229.48438 229.58438L230.53125 228.95938L230.53125 231.13126L231.59375 231.13126L231.59375 231.94376L230.53125 231.94376L230.53125 235.58438Q230.53125 236.0375 230.57812 236.1625Q230.64062 236.2875 230.76562 236.36563Q230.89062 236.44376 231.125 236.44376Q231.3125 236.44376 231.59375 236.4125ZM231.875 235.49063L232.90625 235.33438Q233.0 235.95938 233.39062 236.2875Q233.79688 236.61563 234.53125 236.61563Q235.25 236.61563 235.59375 236.33438Q235.95312 236.0375 235.95312 235.63126Q235.95312 235.27188 235.64062 235.06876Q235.42188 234.92813 234.5625 234.70938Q233.40625 234.4125 232.95312 234.20938Q232.51562 233.99063 232.28125 233.61563Q232.04688 233.24063 232.04688 232.77188Q232.04688 232.36563 232.23438 232.00626Q232.42188 231.64688 232.75 231.4125Q233.0 231.24063 233.42188 231.11563Q233.84375 230.99063 234.34375 230.99063Q235.0625 230.99063 235.60938 231.20938Q236.17188 231.4125 236.4375 231.77188Q236.70312 232.13126 236.79688 232.725L235.76562 232.86563Q235.70312 232.39688 235.35938 232.13126Q235.03125 231.85 234.40625 231.85Q233.6875 231.85 233.375 232.1Q233.0625 232.33438 233.0625 232.6625Q233.0625 232.86563 233.1875 233.02188Q233.32812 233.19376 233.59375 233.30313Q233.75 233.36563 234.53125 233.56876Q235.65625 233.88126 236.09375 234.06876Q236.53125 234.25626 236.78125 234.61563Q237.03125 234.975 237.03125 235.52188Q237.03125 236.05313 236.71875 236.52188Q236.42188 236.975 235.84375 237.24063Q235.26562 237.49063 234.53125 237.49063Q233.3125 237.49063 232.67188 236.99063Q232.04688 236.475 231.875 235.49063Z" fill-rule="nonzero"/><path fill="#000000" d="M38.525 67.11702L38.525 58.52327L39.665627 58.52327L39.665627 62.788895L43.93125 58.52327L45.478127 58.52327L41.86875 62.007645L45.634377 67.11702L44.134377 67.11702L41.071877 62.77327L39.665627 64.132645L39.665627 67.11702L38.525 67.11702ZM50.696877 65.11702L51.790627 65.24202Q51.540627 66.195145 50.8375 66.726395Q50.134377 67.257645 49.05625 67.257645Q47.696877 67.257645 46.884377 66.413895Q46.0875 65.570145 46.0875 64.05452Q46.0875 62.49202 46.9 61.632645Q47.7125 60.757645 48.99375 60.757645Q50.24375 60.757645 51.025 61.601395Q51.821877 62.445145 51.821877 63.99202Q51.821877 64.08577 51.821877 64.27327L47.18125 64.27327Q47.24375 65.30452 47.759377 65.851395Q48.275 66.382645 49.05625 66.382645Q49.634377 66.382645 50.040627 66.08577Q50.4625 65.77327 50.696877 65.11702ZM47.24375 63.413895L50.7125 63.413895Q50.65 62.61702 50.321877 62.226395Q49.80625 61.61702 49.009377 61.61702Q48.275 61.61702 47.775 62.101395Q47.290627 62.58577 47.24375 63.413895ZM53.4 69.507645L53.275 68.52327Q53.61875 68.61702 53.884377 68.61702Q54.228127 68.61702 54.43125 68.49202Q54.65 68.382645 54.790627 68.17952Q54.884377 68.007645 55.11875 67.382645Q55.134377 67.30452 55.2125 67.132645L52.8375 60.89827L53.978127 60.89827L55.275 64.49202Q55.525 65.17952 55.728127 65.945145Q55.915627 65.21077 56.165627 64.52327L57.49375 60.89827L58.540627 60.89827L56.18125 67.226395Q55.790627 68.24202 55.5875 68.632645Q55.30625 69.163895 54.93125 69.39827Q54.571877 69.64827 54.071877 69.64827Q53.775 69.64827 53.4 69.507645Z" fill-rule="nonzero"/><path fill="#000000" d="M13.571875 141.88298L13.571875 133.28923L14.728125 133.28923L19.24375 140.03923L19.24375 133.28923L20.3375 133.28923L20.3375 141.88298L19.165625 141.88298L14.65 135.13298L14.65 141.88298L13.571875 141.88298ZM22.05625 138.7736Q22.05625 137.03923 23.009375 136.2111Q23.80625 135.5236 24.9625 135.5236Q26.24375 135.5236 27.05625 136.36736Q27.884375 137.19548 27.884375 138.67986Q27.884375 139.88298 27.525 140.57048Q27.165625 141.25798 26.4625 141.6486Q25.775 142.0236 24.9625 142.0236Q23.665625 142.0236 22.853125 141.19548Q22.05625 140.35173 22.05625 138.7736ZM23.134375 138.7736Q23.134375 139.9611 23.65 140.55486Q24.18125 141.1486 24.9625 141.1486Q25.759375 141.1486 26.275 140.55486Q26.790625 139.9611 26.790625 138.74236Q26.790625 137.5861 26.259375 136.99236Q25.74375 136.3986 24.9625 136.3986Q24.18125 136.3986 23.65 136.99236Q23.134375 137.57048 23.134375 138.7736ZM29.446875 141.88298L29.446875 135.66423L30.384375 135.66423L30.384375 136.53923Q31.071875 135.5236 32.36875 135.5236Q32.93125 135.5236 33.4 135.72673Q33.884377 135.92986 34.11875 136.25798Q34.353127 136.5861 34.446877 137.0236Q34.49375 137.32048 34.49375 138.05486L34.49375 141.88298L33.446877 141.88298L33.446877 138.10173Q33.446877 137.44548 33.321877 137.13298Q33.196877 136.82048 32.884377 136.63298Q32.571877 136.42986 32.15 136.42986Q31.478125 136.42986 30.978125 136.86736Q30.49375 137.28923 30.49375 138.47673L30.49375 141.88298L29.446875 141.88298ZM36.025 139.30486L36.025 138.24236L39.275 138.24236L39.275 139.30486L36.025 139.30486ZM40.446877 141.88298L40.446877 133.28923L41.509377 133.28923L41.509377 138.19548L43.99375 135.66423L45.36875 135.66423L42.978127 137.9611L45.603127 141.88298L44.30625 141.88298L42.24375 138.69548L41.509377 139.41423L41.509377 141.88298L40.446877 141.88298ZM50.696877 139.88298L51.790627 140.00798Q51.540627 140.9611 50.8375 141.49236Q50.134377 142.0236 49.05625 142.0236Q47.696877 142.0236 46.884377 141.17986Q46.0875 140.3361 46.0875 138.82048Q46.0875 137.25798 46.9 136.3986Q47.7125 135.5236 48.99375 135.5236Q50.24375 135.5236 51.025 136.36736Q51.821877 137.2111 51.821877 138.75798Q51.821877 138.85173 51.821877 139.03923L47.18125 139.03923Q47.24375 140.07048 47.759377 140.61736Q48.275 141.1486 49.05625 141.1486Q49.634377 141.1486 50.040627 140.85173Q50.4625 140.53923 50.696877 139.88298ZM47.24375 138.17986L50.7125 138.17986Q50.65 137.38298 50.321877 136.99236Q49.80625 136.38298 49.009377 136.38298Q48.275 136.38298 47.775 136.86736Q47.290627 137.35173 47.24375 138.17986ZM53.4 144.2736L53.275 143.28923Q53.61875 143.38298 53.884377 143.38298Q54.228127 143.38298 54.43125 143.25798Q54.65 143.1486 54.790627 142.94548Q54.884377 142.7736 55.11875 142.1486Q55.134377 142.07048 55.2125 141.8986L52.8375 135.66423L53.978127 135.66423L55.275 139.25798Q55.525 139.94548 55.728127 140.7111Q55.915627 139.97673 56.165627 139.28923L57.49375 135.66423L58.540627 135.66423L56.18125 141.99236Q55.790627 143.00798 55.5875 143.3986Q55.30625 143.92986 54.93125 144.16423Q54.571877 144.41423 54.071877 144.41423Q53.775 144.41423 53.4 144.2736Z" fill-rule="nonzero"/><path fill="#000000" d="M60.65 201.11563Q60.65 199.58438 60.9625 198.6625Q61.275 197.725 61.884377 197.225Q62.509377 196.725 63.446877 196.725Q64.13438 196.725 64.65 197.00626Q65.18125 197.2875 65.525 197.81876Q65.86875 198.33438 66.05625 199.08438Q66.24375 199.83438 66.24375 201.11563Q66.24375 202.63126 65.93125 203.55313Q65.63438 204.475 65.00938 204.99063Q64.4 205.49063 63.446877 205.49063Q62.2125 205.49063 61.49375 204.6Q60.65 203.5375 60.65 201.11563ZM61.728127 201.11563Q61.728127 203.225 62.228127 203.92813Q62.728127 204.63126 63.446877 204.63126Q64.18125 204.63126 64.66563 203.92813Q65.16563 203.225 65.16563 201.11563Q65.16563 198.99063 64.66563 198.30313Q64.18125 197.6 63.43125 197.6Q62.7125 197.6 62.275 198.20938Q61.728127 198.99063 61.728127 201.11563Z" fill-rule="nonzero"/><path fill="#000000" d="M137.62187 204.33438L137.62187 205.35L131.93437 205.35Q131.93437 204.975 132.05937 204.61563Q132.27812 204.0375 132.74687 203.475Q133.23125 202.9125 134.1375 202.17813Q135.54375 201.02188 136.02812 200.35Q136.52812 199.67813 136.52812 199.08438Q136.52812 198.45938 136.075 198.0375Q135.62187 197.6 134.90312 197.6Q134.1375 197.6 133.68437 198.05313Q133.23125 198.50626 133.21562 199.31876L132.1375 199.20938Q132.24687 197.99063 132.96562 197.36563Q133.7 196.725 134.93437 196.725Q136.16875 196.725 136.8875 197.4125Q137.60625 198.1 137.60625 199.11563Q137.60625 199.63126 137.3875 200.13126Q137.18437 200.61563 136.68437 201.17813Q136.2 201.725 135.075 202.67813Q134.12187 203.475 133.84062 203.77188Q133.575 204.05313 133.40312 204.33438L137.62187 204.33438ZM139.075 201.11563Q139.075 199.58438 139.3875 198.6625Q139.7 197.725 140.30937 197.225Q140.93437 196.725 141.87187 196.725Q142.55937 196.725 143.075 197.00626Q143.60625 197.2875 143.95 197.81876Q144.29375 198.33438 144.48125 199.08438Q144.66875 199.83438 144.66875 201.11563Q144.66875 202.63126 144.35625 203.55313Q144.05937 204.475 143.43437 204.99063Q142.825 205.49063 141.87187 205.49063Q140.6375 205.49063 139.91875 204.6Q139.075 203.5375 139.075 201.11563ZM140.15312 201.11563Q140.15312 203.225 140.65312 203.92813Q141.15312 204.63126 141.87187 204.63126Q142.60625 204.63126 143.09062 203.92813Q143.59062 203.225 143.59062 201.11563Q143.59062 198.99063 143.09062 198.30313Q142.60625 197.6 141.85625 197.6Q141.1375 197.6 140.7 198.20938Q140.15312 198.99063 140.15312 201.11563Z" fill-rule="nonzero"/><path fill="#000000" d="M210.375 205.35L210.375 203.2875L206.65625 203.2875L206.65625 202.31876L210.57812 196.75626L211.4375 196.75626L211.4375 202.31876L212.59375 202.31876L212.59375 203.2875L211.4375 203.2875L211.4375 205.35L210.375 205.35ZM210.375 202.31876L210.375 198.45938L207.6875 202.31876L210.375 202.31876ZM214.0 201.11563Q214.0 199.58438 214.3125 198.6625Q214.625 197.725 215.23438 197.225Q215.85938 196.725 216.79688 196.725Q217.48438 196.725 218.0 197.00626Q218.53125 197.2875 218.875 197.81876Q219.21875 198.33438 219.40625 199.08438Q219.59375 199.83438 219.59375 201.11563Q219.59375 202.63126 219.28125 203.55313Q218.98438 204.475 218.35938 204.99063Q217.75 205.49063 216.79688 205.49063Q215.5625 205.49063 214.84375 204.6Q214.0 203.5375 214.0 201.11563ZM215.07812 201.11563Q215.07812 203.225 215.57812 203.92813Q216.07812 204.63126 216.79688 204.63126Q217.53125 204.63126 218.01562 203.92813Q218.51562 203.225 218.51562 201.11563Q218.51562 198.99063 218.01562 198.30313Q217.53125 197.6 216.78125 197.6Q216.0625 197.6 215.625 198.20938Q215.07812 198.99063 215.07812 201.11563Z" fill-rule="nonzero"/><path fill="#000000" d="M287.39374 198.86563L286.34686 198.94376Q286.20624 198.31876 285.95624 198.0375Q285.51874 197.58438 284.89374 197.58438Q284.39374 197.58438 284.0031 197.86563Q283.51874 198.24063 283.22186 198.94376Q282.9406 199.63126 282.925 200.9125Q283.3 200.33438 283.84686 200.05313Q284.40936 199.77188 285.01874 199.77188Q286.0656 199.77188 286.8 200.55313Q287.55 201.33438 287.55 202.55313Q287.55 203.36563 287.1906 204.06876Q286.84686 204.75626 286.2375 205.13126Q285.6281 205.49063 284.8625 205.49063Q283.53436 205.49063 282.70624 204.52188Q281.8781 203.55313 281.8781 201.33438Q281.8781 198.83438 282.8 197.70938Q283.59686 196.725 284.95624 196.725Q285.97186 196.725 286.6125 197.30313Q287.26874 197.86563 287.39374 198.86563ZM283.09686 202.56876Q283.09686 203.11563 283.3156 203.61563Q283.55 204.1 283.95624 204.36563Q284.3781 204.63126 284.84686 204.63126Q285.5031 204.63126 285.9875 204.1Q286.47186 203.55313 286.47186 202.63126Q286.47186 201.74063 285.9875 201.225Q285.51874 200.70938 284.8 200.70938Q284.08124 200.70938 283.58124 201.225Q283.09686 201.74063 283.09686 202.56876ZM288.925 201.11563Q288.925 199.58438 289.2375 198.6625Q289.55 197.725 290.15936 197.225Q290.78436 196.725 291.72186 196.725Q292.40936 196.725 292.925 197.00626Q293.45624 197.2875 293.8 197.81876Q294.14374 198.33438 294.33124 199.08438Q294.51874 199.83438 294.51874 201.11563Q294.51874 202.63126 294.20624 203.55313Q293.90936 204.475 293.28436 204.99063Q292.675 205.49063 291.72186 205.49063Q290.4875 205.49063 289.76874 204.6Q288.925 203.5375 288.925 201.11563ZM290.0031 201.11563Q290.0031 203.225 290.5031 203.92813Q291.0031 204.63126 291.72186 204.63126Q292.45624 204.63126 292.9406 203.92813Q293.4406 203.225 293.4406 201.11563Q293.4406 198.99063 292.9406 198.30313Q292.45624 197.6 291.70624 197.6Q290.9875 197.6 290.55 198.20938Q290.0031 198.99063 290.0031 201.11563Z" fill-rule="nonzero"/><path fill="#000000" d="M358.475 200.69376Q357.81876 200.44376 357.49063 200.00626Q357.17813 199.55313 357.17813 198.94376Q357.17813 198.00626 357.85 197.36563Q358.5375 196.725 359.64688 196.725Q360.77188 196.725 361.45938 197.38126Q362.14688 198.0375 362.14688 198.975Q362.14688 199.56876 361.83438 200.00626Q361.52188 200.44376 360.88126 200.69376Q361.67813 200.94376 362.08438 201.52188Q362.49063 202.1 362.49063 202.89688Q362.49063 203.99063 361.70938 204.74063Q360.94376 205.49063 359.6625 205.49063Q358.39688 205.49063 357.61563 204.74063Q356.83438 203.99063 356.83438 202.86563Q356.83438 202.02188 357.25626 201.45938Q357.69376 200.89688 358.475 200.69376ZM358.25626 198.89688Q358.25626 199.50626 358.64688 199.89688Q359.05313 200.2875 359.67813 200.2875Q360.2875 200.2875 360.67813 199.9125Q361.06876 199.52188 361.06876 198.95938Q361.06876 198.38126 360.6625 197.99063Q360.25626 197.58438 359.6625 197.58438Q359.05313 197.58438 358.64688 197.975Q358.25626 198.36563 358.25626 198.89688ZM357.92813 202.86563Q357.92813 203.31876 358.13126 203.74063Q358.35 204.1625 358.77188 204.39688Q359.19376 204.63126 359.67813 204.63126Q360.42813 204.63126 360.9125 204.14688Q361.4125 203.6625 361.4125 202.9125Q361.4125 202.14688 360.9125 201.64688Q360.4125 201.14688 359.64688 201.14688Q358.89688 201.14688 358.4125 201.64688Q357.92813 202.13126 357.92813 202.86563ZM363.85 201.11563Q363.85 199.58438 364.1625 198.6625Q364.475 197.725 365.08438 197.225Q365.70938 196.725 366.64688 196.725Q367.33438 196.725 367.85 197.00626Q368.38126 197.2875 368.725 197.81876Q369.06876 198.33438 369.25626 199.08438Q369.44376 199.83438 369.44376 201.11563Q369.44376 202.63126 369.13126 203.55313Q368.83438 204.475 368.20938 204.99063Q367.6 205.49063 366.64688 205.49063Q365.4125 205.49063 364.69376 204.6Q363.85 203.5375 363.85 201.11563ZM364.92813 201.11563Q364.92813 203.225 365.42813 203.92813Q365.92813 204.63126 366.64688 204.63126Q367.38126 204.63126 367.86563 203.92813Q368.36563 203.225 368.36563 201.11563Q368.36563 198.99063 367.86563 198.30313Q367.38126 197.6 366.63126 197.6Q365.9125 197.6 365.475 198.20938Q364.92813 198.99063 364.92813 201.11563Z" fill-rule="nonzero"/></svg>