<svg version="1.1" viewBox="0.0 0.0 376.0 253.0" fill="none" stroke="none" stroke-linecap="square" stroke-miterlimit="10" width="376" height="253" xmlns:xlink="http://www.w3.org/1999/xlink" xmlns="http://www.w3.org/2000/svg"><path fill="#ffffff" fill-opacity="0.0" d="M0 0L376.0 0L376.0 253.0L0 253.0L0 0Z" fill-rule="nonzero"/><path stroke="#333333" stroke-width="1.0" stroke-linecap="butt" d="M39.5 220.5L363.5 220.5" fill-rule="nonzero"/><path stroke="#cccccc" stroke-width="1.0" stroke-linecap="butt" d="M39.5 180.5L363.5 180.5" fill-rule="nonzero"/><path stroke="#cccccc" stroke-width="1.0" stroke-linecap="butt" d="M39.5 140.5L363.5 140.5" fill-rule="nonzero"/><path stroke="#cccccc" stroke-width="1.0" stroke-linecap="butt" d="M39.5 99.5L363.5 99.5" fill-rule="nonzero"/><path stroke="#cccccc" stroke-width="1.0" stroke-linecap="butt" d="M39.5 59.5L363.5 59.5" fill-rule="nonzero"/><path stroke="#cccccc" stroke-width="1.0" stroke-linecap="butt" d="M39.5 19.5L363.5 19.5" fill-rule="nonzero"/><clipPath id="id_0"><path d="M39.65 19.65L363.35 19.65L363.35 220.35L39.65 220.35L39.65 19.65Z" clip-rule="nonzero"/></clipPath><path stroke="#000000" stroke-width="2.0" stroke-linecap="butt" stroke-opacity="0.0" clip-path="url(#id_0)" d="M91.0 220.0L58.0 220.0L58.0 22.0C58.0 20.89543 58.89543 20.0 60.0 20.0L89.0 20.0C90.10457 20.0 91.0 20.89543 91.0 22.0Z" fill-rule="nonzero"/><path fill="#4285f4" clip-path="url(#id_0)" d="M91.0 220.0L58.0 220.0L58.0 22.0C58.0 20.89543 58.89543 20.0 60.0 20.0L89.0 20.0C90.10457 20.0 91.0 20.89543 91.0 22.0Z" fill-rule="nonzero"/><path stroke="#000000" stroke-width="2.0" stroke-linecap="butt" stroke-opacity="0.0" clip-path="url(#id_0)" d="M142.0 220.0L109.0 220.0L109.0 70.0C109.0 68.89543 109.89543 68.0 111.0 68.0L140.0 68.0C141.10457 68.0 142.0 68.89543 142.0 70.0Z" fill-rule="nonzero"/><path fill="#4285f4" clip-path="url(#id_0)" d="M142.0 220.0L109.0 220.0L109.0 70.0C109.0 68.89543 109.89543 68.0 111.0 68.0L140.0 68.0C141.10457 68.0 142.0 68.89543 142.0 70.0Z" fill-rule="nonzero"/><path stroke="#000000" stroke-width="2.0" stroke-linecap="butt" stroke-opacity="0.0" clip-path="url(#id_0)" d="M193.0 220.0L160.0 220.0L160.0 86.0C160.0 84.89543 160.89543 84.0 162.0 84.0L191.0 84.0C192.10457 84.0 193.0 84.89543 193.0 86.0Z" fill-rule="nonzero"/><path fill="#4285f4" clip-path="url(#id_0)" d="M193.0 220.0L160.0 220.0L160.0 86.0C160.0 84.89543 160.89543 84.0 162.0 84.0L191.0 84.0C192.10457 84.0 193.0 84.89543 193.0 86.0Z" fill-rule="nonzero"/><path stroke="#000000" stroke-width="2.0" stroke-linecap="butt" stroke-opacity="0.0" clip-path="url(#id_0)" d="M244.0 220.0L211.0 220.0L211.0 102.0C211.0 100.89543 211.89543 100.0 213.0 100.0L242.0 100.0C243.10457 100.0 244.0 100.89543 244.0 102.0Z" fill-rule="nonzero"/><path fill="#4285f4" clip-path="url(#id_0)" d="M244.0 220.0L211.0 220.0L211.0 102.0C211.0 100.89543 211.89543 100.0 213.0 100.0L242.0 100.0C243.10457 100.0 244.0 100.89543 244.0 102.0Z" fill-rule="nonzero"/><path stroke="#000000" stroke-width="2.0" stroke-linecap="butt" stroke-opacity="0.0" clip-path="url(#id_0)" d="M295.0 220.0L262.0 220.0L262.0 118.0C262.0 116.89543 262.89542 116.0 264.0 116.0L293.0 116.0C294.10458 116.0 295.0 116.89543 295.0 118.0Z" fill-rule="nonzero"/><path fill="#4285f4" clip-path="url(#id_0)" d="M295.0 220.0L262.0 220.0L262.0 118.0C262.0 116.89543 262.89542 116.0 264.0 116.0L293.0 116.0C294.10458 116.0 295.0 116.89543 295.0 118.0Z" fill-rule="nonzero"/><path stroke="#000000" stroke-width="2.0" stroke-linecap="butt" stroke-opacity="0.0" clip-path="url(#id_0)" d="M346.0 220.0L313.0 220.0L313.0 182.0C313.0 180.89543 313.89542 180.0 315.0 180.0L344.0 180.0C345.10458 180.0 346.0 180.89543 346.0 182.0Z" fill-rule="nonzero"/><path fill="#4285f4" clip-path="url(#id_0)" d="M346.0 220.0L313.0 220.0L313.0 182.0C313.0 180.89543 313.89542 180.0 315.0 180.0L344.0 180.0C345.10458 180.0 346.0 180.89543 346.0 182.0Z" fill-rule="nonzero"/><path fill="#000000" d="M27.15 220.11563Q27.15 218.58438 27.4625 217.6625Q27.775 216.725 28.384375 216.225Q29.009375 215.725 29.946875 215.725Q30.634375 215.725 31.15 216.00626Q31.68125 216.2875 32.025 216.81876Q32.36875 217.33438 32.55625 218.08438Q32.74375 218.83438 32.74375 220.11563Q32.74375 221.63126 32.43125 222.55313Q32.134377 223.475 31.509375 223.99063Q30.9 224.49063 29.946875 224.49063Q28.7125 224.49063 27.99375 223.6Q27.15 222.5375 27.15 220.11563ZM28.228125 220.11563Q28.228125 222.225 28.728125 222.92813Q29.228125 223.63126 29.946875 223.63126Q30.68125 223.63126 31.165625 222.92813Q31.665625 222.225 31.665625 220.11563Q31.665625 217.99063 31.165625 217.30313Q30.68125 216.6 29.93125 216.6Q29.2125 216.6 28.775 217.20938Q28.228125 217.99063 28.228125 220.11563Z" fill-rule="nonzero"/><path fill="#000000" d="M27.15 181.96L28.259375 181.86626Q28.384375 182.67876 28.821875 183.085Q29.275 183.49126 29.915625 183.49126Q30.665625 183.49126 31.196875 182.91313Q31.728125 182.335 31.728125 181.3975Q31.728125 180.49126 31.2125 179.97563Q30.7125 179.44438 29.884375 179.44438Q29.384375 179.44438 28.9625 179.67876Q28.55625 179.91313 28.321875 180.2725L27.3375 180.1475L28.165625 175.74126L32.446877 175.74126L32.446877 176.74126L29.009375 176.74126L28.55625 179.05376Q29.321875 178.50688 30.165625 178.50688Q31.290625 178.50688 32.05625 179.28813Q32.8375 180.06938 32.8375 181.30376Q32.8375 182.46 32.165627 183.31938Q31.3375 184.35063 29.915625 184.35063Q28.74375 184.35063 27.99375 183.69438Q27.259375 183.03813 27.15 181.96Z" fill-rule="nonzero"/><path fill="#000000" d="M24.11875 144.07L23.071875 144.07L23.071875 137.35126Q22.68125 137.71063 22.05625 138.08563Q21.446875 138.445 20.9625 138.61688L20.9625 137.60126Q21.8375 137.17938 22.49375 136.60126Q23.165625 136.0075 23.446875 135.445L24.11875 135.445L24.11875 144.07ZM27.15 139.83563Q27.15 138.30438 27.4625 137.3825Q27.775 136.445 28.384375 135.945Q29.009375 135.445 29.946875 135.445Q30.634375 135.445 31.15 135.72626Q31.68125 136.0075 32.025 136.53876Q32.36875 137.05438 32.55625 137.80438Q32.74375 138.55438 32.74375 139.83563Q32.74375 141.35126 32.43125 142.27313Q32.134377 143.195 31.509375 143.71063Q30.9 144.21063 29.946875 144.21063Q28.7125 144.21063 27.99375 143.32Q27.15 142.2575 27.15 139.83563ZM28.228125 139.83563Q28.228125 141.945 28.728125 142.64813Q29.228125 143.35126 29.946875 143.35126Q30.68125 143.35126 31.165625 142.64813Q31.665625 141.945 31.665625 139.83563Q31.665625 137.71063 31.165625 137.02313Q30.68125 136.32 29.93125 136.32Q29.2125 136.32 28.775 136.92938Q28.228125 137.71063 28.228125 139.83563Z" fill-rule="nonzero"/><path fill="#000000" d="M24.11875 103.93L23.071875 103.93L23.071875 97.21125Q22.68125 97.570625 22.05625 97.945625Q21.446875 98.305 20.9625 98.476875L20.9625 97.46125Q21.8375 97.039375 22.49375 96.46125Q23.165625 95.8675 23.446875 95.305L24.11875 95.305L24.11875 103.93ZM27.15 101.68L28.259375 101.58625Q28.384375 102.39875 28.821875 102.805Q29.275 103.21125 29.915625 103.21125Q30.665625 103.21125 31.196875 102.633125Q31.728125 102.055 31.728125 101.1175Q31.728125 100.21125 31.2125 99.695625Q30.7125 99.164375 29.884375 99.164375Q29.384375 99.164375 28.9625 99.39875Q28.55625 99.633125 28.321875 99.9925L27.3375 99.8675L28.165625 95.46125L32.446877 95.46125L32.446877 96.46125L29.009375 96.46125L28.55625 98.77375Q29.321875 98.226875 30.165625 98.226875Q31.290625 98.226875 32.05625 99.008125Q32.8375 99.789375 32.8375 101.02375Q32.8375 102.18 32.165627 103.039375Q31.3375 104.070625 29.915625 104.070625Q28.74375 104.070625 27.99375 103.414375Q27.259375 102.758125 27.15 101.68Z" fill-rule="nonzero"/><path fill="#000000" d="M25.696875 62.774376L25.696875 63.79L20.009375 63.79Q20.009375 63.415 20.134375 63.055626Q20.353125 62.4775 20.821875 61.915Q21.30625 61.3525 22.2125 60.618126Q23.61875 59.461876 24.103125 58.79Q24.603125 58.118126 24.603125 57.524376Q24.603125 56.899376 24.15 56.4775Q23.696875 56.04 22.978125 56.04Q22.2125 56.04 21.759375 56.493126Q21.30625 56.94625 21.290625 57.75875L20.2125 57.649376Q20.321875 56.430626 21.040625 55.805626Q21.775 55.165 23.009375 55.165Q24.24375 55.165 24.9625 55.8525Q25.68125 56.54 25.68125 57.555626Q25.68125 58.07125 25.4625 58.57125Q25.259375 59.055626 24.759375 59.618126Q24.275 60.165 23.15 61.118126Q22.196875 61.915 21.915625 62.211876Q21.65 62.493126 21.478125 62.774376L25.696875 62.774376ZM27.15 59.555626Q27.15 58.024376 27.4625 57.1025Q27.775 56.165 28.384375 55.665Q29.009375 55.165 29.946875 55.165Q30.634375 55.165 31.15 55.44625Q31.68125 55.7275 32.025 56.25875Q32.36875 56.774376 32.55625 57.524376Q32.74375 58.274376 32.74375 59.555626Q32.74375 61.07125 32.43125 61.993126Q32.134377 62.915 31.509375 63.430626Q30.9 63.930626 29.946875 63.930626Q28.7125 63.930626 27.99375 63.04Q27.15 61.9775 27.15 59.555626ZM28.228125 59.555626Q28.228125 61.665 28.728125 62.368126Q29.228125 63.07125 29.946875 63.07125Q30.68125 63.07125 31.165625 62.368126Q31.665625 61.665 31.665625 59.555626Q31.665625 57.430626 31.165625 56.743126Q30.68125 56.04 29.93125 56.04Q29.2125 56.04 28.775 56.649376Q28.228125 57.430626 28.228125 59.555626Z" fill-rule="nonzero"/><path fill="#000000" d="M25.696875 22.634375L25.696875 23.65L20.009375 23.65Q20.009375 23.275 20.134375 22.915625Q20.353125 22.3375 20.821875 21.775Q21.30625 21.2125 22.2125 20.478125Q23.61875 19.321875 24.103125 18.65Q24.603125 17.978125 24.603125 17.384375Q24.603125 16.759375 24.15 16.3375Q23.696875 15.9 22.978125 15.9Q22.2125 15.9 21.759375 16.353125Q21.30625 16.80625 21.290625 17.61875L20.2125 17.509375Q20.321875 16.290625 21.040625 15.665625Q21.775 15.025 23.009375 15.025Q24.24375 15.025 24.9625 15.7125Q25.68125 16.4 25.68125 17.415625Q25.68125 17.93125 25.4625 18.43125Q25.259375 18.915625 24.759375 19.478125Q24.275 20.025 23.15 20.978125Q22.196875 21.775 21.915625 22.071875Q21.65 22.353125 21.478125 22.634375L25.696875 22.634375ZM27.15 21.4L28.259375 21.30625Q28.384375 22.11875 28.821875 22.525Q29.275 22.93125 29.915625 22.93125Q30.665625 22.93125 31.196875 22.353125Q31.728125 21.775 31.728125 20.8375Q31.728125 19.93125 31.2125 19.415625Q30.7125 18.884375 29.884375 18.884375Q29.384375 18.884375 28.9625 19.11875Q28.55625 19.353125 28.321875 19.7125L27.3375 19.5875L28.165625 15.18125L32.446877 15.18125L32.446877 16.18125L29.009375 16.18125L28.55625 18.49375Q29.321875 17.946875 30.165625 17.946875Q31.290625 17.946875 32.05625 18.728125Q32.8375 19.509375 32.8375 20.74375Q32.8375 21.9 32.165627 22.759375Q31.3375 23.790625 29.915625 23.790625Q28.74375 23.790625 27.99375 23.134375Q27.259375 22.478125 27.15 21.4Z" fill-rule="nonzero"/><path fill="#000000" d="M75.0278 237.35L73.98093 237.35L73.98093 230.63126Q73.5903 230.99063 72.9653 231.36563Q72.35593 231.725 71.87155 231.89688L71.87155 230.88126Q72.74655 230.45938 73.4028 229.88126Q74.07468 229.2875 74.35593 228.725L75.0278 228.725L75.0278 237.35Z" fill-rule="nonzero"/><path fill="#000000" d="M127.582306 236.33438L127.582306 237.35L121.894806 237.35Q121.894806 236.975 122.019806 236.61563Q122.238556 236.0375 122.707306 235.475Q123.19168 234.9125 124.09793 234.17813Q125.50418 233.02188 125.988556 232.35Q126.488556 231.67813 126.488556 231.08438Q126.488556 230.45938 126.03543 230.0375Q125.582306 229.6 124.863556 229.6Q124.09793 229.6 123.644806 230.05313Q123.19168 230.50626 123.176056 231.31876L122.09793 231.20938Q122.207306 229.99063 122.926056 229.36563Q123.66043 228.725 124.894806 228.725Q126.12918 228.725 126.84793 229.4125Q127.56668 230.1 127.56668 231.11563Q127.56668 231.63126 127.34793 232.13126Q127.144806 232.61563 126.644806 233.17813Q126.16043 233.725 125.03543 234.67813Q124.082306 235.475 123.801056 235.77188Q123.53543 236.05313 123.363556 236.33438L127.582306 236.33438Z" fill-rule="nonzero"/><path fill="#000000" d="M173.01181 235.08438L174.07431 234.94376Q174.24619 235.83438 174.68369 236.24063Q175.12119 236.63126 175.74619 236.63126Q176.49619 236.63126 177.01181 236.11563Q177.52744 235.6 177.52744 234.83438Q177.52744 234.11563 177.04306 233.64688Q176.57431 233.1625 175.83994 233.1625Q175.54306 233.1625 175.08994 233.2875L175.21494 232.35Q175.32431 232.36563 175.38681 232.36563Q176.05869 232.36563 176.58994 232.02188Q177.13681 231.6625 177.13681 230.92813Q177.13681 230.35 176.74619 229.975Q176.35556 229.58438 175.73056 229.58438Q175.12119 229.58438 174.69931 229.975Q174.29306 230.36563 174.18369 231.13126L173.12119 230.94376Q173.30869 229.89688 173.99619 229.31876Q174.68369 228.725 175.69931 228.725Q176.40244 228.725 176.99619 229.0375Q177.58994 229.33438 177.90244 229.85Q178.21494 230.36563 178.21494 230.95938Q178.21494 231.50626 177.91806 231.975Q177.62119 232.42813 177.04306 232.69376Q177.79306 232.86563 178.21494 233.42813Q178.63681 233.975 178.63681 234.81876Q178.63681 235.94376 177.80869 236.725Q176.99619 237.50626 175.74619 237.50626Q174.62119 237.50626 173.87119 236.83438Q173.12119 236.14688 173.01181 235.08438Z" fill-rule="nonzero"/><path fill="#000000" d="M227.36319 237.35L227.36319 235.2875L223.64444 235.2875L223.64444 234.31876L227.56631 228.75626L228.42569 228.75626L228.42569 234.31876L229.58194 234.31876L229.58194 235.2875L228.42569 235.2875L228.42569 237.35L227.36319 237.35ZM227.36319 234.31876L227.36319 230.45938L224.67569 234.31876L227.36319 234.31876Z" fill-rule="nonzero"/><path fill="#000000" d="M274.96457 235.1L276.07394 235.00626Q276.19894 235.81876 276.63644 236.225Q277.08957 236.63126 277.7302 236.63126Q278.4802 236.63126 279.01144 236.05313Q279.5427 235.475 279.5427 234.5375Q279.5427 233.63126 279.02707 233.11563Q278.52707 232.58438 277.69894 232.58438Q277.19894 232.58438 276.77707 232.81876Q276.37082 233.05313 276.13644 233.4125L275.15207 233.2875L275.9802 228.88126L280.26144 228.88126L280.26144 229.88126L276.82394 229.88126L276.37082 232.19376Q277.13644 231.64688 277.9802 231.64688Q279.1052 231.64688 279.87082 232.42813Q280.65207 233.20938 280.65207 234.44376Q280.65207 235.6 279.9802 236.45938Q279.15207 237.49063 277.7302 237.49063Q276.55832 237.49063 275.80832 236.83438Q275.07394 236.17813 274.96457 235.1Z" fill-rule="nonzero"/><path fill="#000000" d="M331.4097 230.86563L330.36282 230.94376Q330.2222 230.31876 329.9722 230.0375Q329.5347 229.58438 328.9097 229.58438Q328.4097 229.58438 328.01907 229.86563Q327.5347 230.24063 327.23782 230.94376Q326.95657 231.63126 326.94095 232.9125Q327.31595 232.33438 327.86282 232.05313Q328.42532 231.77188 329.0347 231.77188Q330.08157 231.77188 330.81595 232.55313Q331.56595 233.33438 331.56595 234.55313Q331.56595 235.36563 331.20657 236.06876Q330.86282 236.75626 330.25345 237.13126Q329.64407 237.49063 328.87845 237.49063Q327.55032 237.49063 326.7222 236.52188Q325.89407 235.55313 325.89407 233.33438Q325.89407 230.83438 326.81595 229.70938Q327.61282 228.725 328.9722 228.725Q329.98782 228.725 330.62845 229.30313Q331.2847 229.86563 331.4097 230.86563ZM327.11282 234.56876Q327.11282 235.11563 327.33157 235.61563Q327.56595 236.1 327.9722 236.36563Q328.39407 236.63126 328.86282 236.63126Q329.51907 236.63126 330.00345 236.1Q330.48782 235.55313 330.48782 234.63126Q330.48782 233.74063 330.00345 233.225Q329.5347 232.70938 328.81595 232.70938Q328.0972 232.70938 327.5972 233.225Q327.11282 233.74063 327.11282 234.56876Z" fill-rule="nonzero"/></svg>