<svg version="1.1" viewBox="0.0 0.0 376.0 253.0" fill="none" stroke="none" stroke-linecap="square" stroke-miterlimit="10" width="376" height="253" xmlns:xlink="http://www.w3.org/1999/xlink" xmlns="http://www.w3.org/2000/svg"><path fill="#ffffff" fill-opacity="0.0" d="M0 0L376.0 0L376.0 253.0L0 253.0L0 0Z" fill-rule="nonzero"/><path stroke="#333333" stroke-width="1.0" stroke-linecap="butt" d="M71.5 164.5L363.5 164.5" fill-rule="nonzero"/><path stroke="#cccccc" stroke-width="1.0" stroke-linecap="butt" d="M71.5 116.5L363.5 116.5" fill-rule="nonzero"/><path stroke="#cccccc" stroke-width="1.0" stroke-linecap="butt" d="M71.5 68.5L363.5 68.5" fill-rule="nonzero"/><path stroke="#cccccc" stroke-width="1.0" stroke-linecap="butt" d="M71.5 19.5L363.5 19.5" fill-rule="nonzero"/><clipPath id="id_0"><path d="M71.65 19.65L363.35 19.65L363.35 164.87334L71.65 164.87334L71.65 19.65Z" clip-rule="nonzero"/></clipPath><path stroke="#000000" stroke-width="2.0" stroke-linecap="butt" stroke-opacity="0.0" clip-path="url(#id_0)" d="M118.0 165.0L88.0 165.0L88.0 144.0C88.0 142.89543 88.89543 142.0 90.0 142.0L116.0 142.0C117.10457 142.0 118.0 142.89543 118.0 144.0Z" fill-rule="nonzero"/><path fill="#4285f4" clip-path="url(#id_0)" d="M118.0 165.0L88.0 165.0L88.0 144.0C88.0 142.89543 88.89543 142.0 90.0 142.0L116.0 142.0C117.10457 142.0 118.0 142.89543 118.0 144.0Z" fill-rule="nonzero"/><path stroke="#000000" stroke-width="2.0" stroke-linecap="butt" stroke-opacity="0.0" clip-path="url(#id_0)" d="M164.0 165.0L134.0 165.0L134.0 157.0C134.0 155.89543 134.89543 155.0 136.0 155.0L162.0 155.0C163.10457 155.0 164.0 155.89543 164.0 157.0Z" fill-rule="nonzero"/><path fill="#4285f4" clip-path="url(#id_0)" d="M164.0 165.0L134.0 165.0L134.0 157.0C134.0 155.89543 134.89543 155.0 136.0 155.0L162.0 155.0C163.10457 155.0 164.0 155.89543 164.0 157.0Z" fill-rule="nonzero"/><path stroke="#000000" stroke-width="2.0" stroke-linecap="butt" stroke-opacity="0.0" clip-path="url(#id_0)" d="M210.0 165.0L180.0 165.0L180.0 93.0C180.0 91.89543 180.89543 91.0 182.0 91.0L208.0 91.0C209.10457 91.0 210.0 91.89543 210.0 93.0Z" fill-rule="nonzero"/><path fill="#4285f4" clip-path="url(#id_0)" d="M210.0 165.0L180.0 165.0L180.0 93.0C180.0 91.89543 180.89543 91.0 182.0 91.0L208.0 91.0C209.10457 91.0 210.0 91.89543 210.0 93.0Z" fill-rule="nonzero"/><path stroke="#000000" stroke-width="2.0" stroke-linecap="butt" stroke-opacity="0.0" clip-path="url(#id_0)" d="M255.0 165.0L225.0 165.0L225.0 154.0C225.0 152.89543 225.89543 152.0 227.0 152.0L253.0 152.0C254.10457 152.0 255.0 152.89543 255.0 154.0Z" fill-rule="nonzero"/><path fill="#4285f4" clip-path="url(#id_0)" d="M255.0 165.0L225.0 165.0L225.0 154.0C225.0 152.89543 225.89543 152.0 227.0 152.0L253.0 152.0C254.10457 152.0 255.0 152.89543 255.0 154.0Z" fill-rule="nonzero"/><path stroke="#000000" stroke-width="2.0" stroke-linecap="butt" stroke-opacity="0.0" clip-path="url(#id_0)" d="M301.0 165.0L271.0 165.0L271.0 163.0C271.0 161.89543 271.89542 161.0 273.0 161.0L299.0 161.0C300.10458 161.0 301.0 161.89543 301.0 163.0Z" fill-rule="nonzero"/><path fill="#4285f4" clip-path="url(#id_0)" d="M301.0 165.0L271.0 165.0L271.0 163.0C271.0 161.89543 271.89542 161.0 273.0 161.0L299.0 161.0C300.10458 161.0 301.0 161.89543 301.0 163.0Z" fill-rule="nonzero"/><path stroke="#000000" stroke-width="2.0" stroke-linecap="butt" stroke-opacity="0.0" clip-path="url(#id_0)" d="M347.0 165.0L317.0 165.0L317.0 41.0C317.0 39.89543 317.89542 39.0 319.0 39.0L345.0 39.0C346.10458 39.0 347.0 39.89543 347.0 41.0Z" fill-rule="nonzero"/><path fill="#4285f4" clip-path="url(#id_0)" d="M347.0 165.0L317.0 165.0L317.0 41.0C317.0 39.89543 317.89542 39.0 319.0 39.0L345.0 39.0C346.10458 39.0 347.0 39.89543 347.0 41.0Z" fill-rule="nonzero"/><path fill="#000000" d="M198.48438 237.35L201.78125 228.75626L203.0 228.75626L206.51562 237.35L205.23438 237.35L204.21875 234.74063L200.64062 234.74063L199.6875 237.35L198.48438 237.35ZM200.96875 233.81876L203.875 233.81876L202.98438 231.44376Q202.5625 230.36563 202.375 229.6625Q202.20312 230.49063 201.90625 231.30313L200.96875 233.81876ZM206.09375 237.86563L207.125 238.02188Q207.1875 238.49063 207.48438 238.70938Q207.875 239.00626 208.54688 239.00626Q209.28125 239.00626 209.67188 238.70938Q210.07812 238.4125 210.21875 237.89688Q210.3125 237.56876 210.29688 236.5375Q209.60938 237.35 208.57812 237.35Q207.29688 237.35 206.59375 236.42813Q205.89062 235.49063 205.89062 234.20938Q205.89062 233.31876 206.20312 232.56876Q206.53125 231.80313 207.14062 231.39688Q207.75 230.99063 208.57812 230.99063Q209.6875 230.99063 210.40625 231.88126L210.40625 231.13126L211.375 231.13126L211.375 236.50626Q211.375 237.95938 211.07812 238.56876Q210.78125 239.17813 210.14062 239.52188Q209.5 239.88126 208.5625 239.88126Q207.45312 239.88126 206.76562 239.38126Q206.07812 238.88126 206.09375 237.86563ZM206.96875 234.13126Q206.96875 235.35 207.45312 235.9125Q207.9375 236.475 208.67188 236.475Q209.40625 236.475 209.89062 235.9125Q210.39062 235.35 210.39062 234.1625Q210.39062 233.02188 209.875 232.44376Q209.375 231.86563 208.65625 231.86563Q207.95312 231.86563 207.45312 232.44376Q206.96875 233.00626 206.96875 234.13126ZM217.54688 235.35L218.64062 235.475Q218.39062 236.42813 217.6875 236.95938Q216.98438 237.49063 215.90625 237.49063Q214.54688 237.49063 213.73438 236.64688Q212.9375 235.80313 212.9375 234.2875Q212.9375 232.725 213.75 231.86563Q214.5625 230.99063 215.84375 230.99063Q217.09375 230.99063 217.875 231.83438Q218.67188 232.67813 218.67188 234.225Q218.67188 234.31876 218.67188 234.50626L214.03125 234.50626Q214.09375 235.5375 214.60938 236.08438Q215.125 236.61563 215.90625 236.61563Q216.48438 236.61563 216.89062 236.31876Q217.3125 236.00626 217.54688 235.35ZM214.09375 233.64688L217.5625 233.64688Q217.5 232.85 217.17188 232.45938Q216.65625 231.85 215.85938 231.85Q215.125 231.85 214.625 232.33438Q214.14062 232.81876 214.09375 233.64688ZM220.29688 229.975L220.29688 228.75626L221.35938 228.75626L221.35938 229.975L220.29688 229.975ZM220.29688 237.35L220.29688 231.13126L221.35938 231.13126L221.35938 237.35L220.29688 237.35ZM223.29688 237.35L223.29688 231.13126L224.23438 231.13126L224.23438 232.00626Q224.92188 230.99063 226.21875 230.99063Q226.78125 230.99063 227.25 231.19376Q227.73438 231.39688 227.96875 231.725Q228.20312 232.05313 228.29688 232.49063Q228.34375 232.7875 228.34375 233.52188L228.34375 237.35L227.29688 237.35L227.29688 233.56876Q227.29688 232.9125 227.17188 232.6Q227.04688 232.2875 226.73438 232.1Q226.42188 231.89688 226.0 231.89688Q225.32812 231.89688 224.82812 232.33438Q224.34375 232.75626 224.34375 233.94376L224.34375 237.35L223.29688 237.35ZM230.09375 237.86563L231.125 238.02188Q231.1875 238.49063 231.48438 238.70938Q231.875 239.00626 232.54688 239.00626Q233.28125 239.00626 233.67188 238.70938Q234.07812 238.4125 234.21875 237.89688Q234.3125 237.56876 234.29688 236.5375Q233.60938 237.35 232.57812 237.35Q231.29688 237.35 230.59375 236.42813Q229.89062 235.49063 229.89062 234.20938Q229.89062 233.31876 230.20312 232.56876Q230.53125 231.80313 231.14062 231.39688Q231.75 230.99063 232.57812 230.99063Q233.6875 230.99063 234.40625 231.88126L234.40625 231.13126L235.375 231.13126L235.375 236.50626Q235.375 237.95938 235.07812 238.56876Q234.78125 239.17813 234.14062 239.52188Q233.5 239.88126 232.5625 239.88126Q231.45312 239.88126 230.76562 239.38126Q230.07812 238.88126 230.09375 237.86563ZM230.96875 234.13126Q230.96875 235.35 231.45312 235.9125Q231.9375 236.475 232.67188 236.475Q233.40625 236.475 233.89062 235.9125Q234.39062 235.35 234.39062 234.1625Q234.39062 233.02188 233.875 232.44376Q233.375 231.86563 232.65625 231.86563Q231.95312 231.86563 231.45312 232.44376Q230.96875 233.00626 230.96875 234.13126Z" fill-rule="nonzero"/><path fill="#000000" d="M23.650005 128.70312L15.056256 128.70312L15.056256 127.640625L19.962505 127.640625L17.431255 125.15625L17.431255 123.78125L19.72813 126.171875L23.650005 123.546875L23.650005 124.84375L20.462505 126.90625L21.181255 127.640625L23.650005 127.640625L23.650005 128.70312ZM23.650005 122.4375L22.44688 122.4375L22.44688 121.234375L23.650005 121.234375Q24.306255 121.234375 24.712505 121.46875Q25.13438 121.703125 25.35313 122.203125L24.900005 122.5Q24.75938 122.171875 24.462505 122.015625Q24.181255 121.859375 23.650005 121.828125L23.650005 122.4375ZM23.650005 116.546875L15.056256 116.546875L15.056256 110.34375L16.07188 110.34375L16.07188 115.40625L18.69688 115.40625L18.69688 110.65625L19.712505 110.65625L19.712505 115.40625L22.63438 115.40625L22.63438 110.140625L23.650005 110.140625L23.650005 116.546875ZM15.056256 102.9375L15.056256 101.796875L20.025005 101.796875Q21.32188 101.796875 22.087505 102.09375Q22.837505 102.390625 23.32188 103.15625Q23.79063 103.921875 23.79063 105.15625Q23.79063 106.359375 23.38438 107.140625Q22.962505 107.90625 22.181255 108.234375Q21.38438 108.5625 20.025005 108.5625L15.056256 108.5625L15.056256 107.421875L20.00938 107.421875Q21.13438 107.421875 21.66563 107.21875Q22.19688 107.0 22.493755 106.5Q22.775005 105.984375 22.775005 105.25Q22.775005 104.0 22.212505 103.46875Q21.63438 102.9375 20.00938 102.9375L15.056256 102.9375ZM23.650005 99.5625L15.056256 99.5625L15.056256 95.75Q15.056256 94.59375 15.290631 94.0Q15.525006 93.40625 16.118755 93.046875Q16.69688 92.6875 17.400005 92.6875Q18.32188 92.6875 18.94688 93.28125Q19.57188 93.875 19.743755 95.109375Q19.962505 94.65625 20.16563 94.421875Q20.618755 93.921875 21.306255 93.484375L23.650005 91.984375L23.650005 93.421875L21.868755 94.546875Q21.087505 95.046875 20.681255 95.375Q20.275005 95.6875 20.118755 95.953125Q19.94688 96.203125 19.868755 96.46875Q19.837505 96.65625 19.837505 97.09375L19.837505 98.421875L23.650005 98.421875L23.650005 99.5625ZM18.85313 98.421875L18.85313 95.96875Q18.85313 95.203125 18.69688 94.765625Q18.525005 94.3125 18.181255 94.09375Q17.82188 93.859375 17.400005 93.859375Q16.79063 93.859375 16.400005 94.3125Q16.00938 94.75 16.00938 95.703125L16.00938 98.421875L18.85313 98.421875Z" fill-rule="nonzero"/><path fill="#000000" d="M59.15 164.63896Q59.15 163.10771 59.4625 162.18584Q59.775 161.24834 60.384377 160.74834Q61.009377 160.24834 61.946877 160.24834Q62.634377 160.24834 63.15 160.52959Q63.68125 160.81084 64.025 161.34209Q64.36875 161.85771 64.55625 162.60771Q64.74375 163.35771 64.74375 164.63896Q64.74375 166.15459 64.43125 167.07646Q64.13438 167.99834 63.509377 168.51396Q62.9 169.01396 61.946877 169.01396Q60.7125 169.01396 59.99375 168.12334Q59.15 167.06084 59.15 164.63896ZM60.228127 164.63896Q60.228127 166.74834 60.728127 167.45146Q61.228127 168.15459 61.946877 168.15459Q62.68125 168.15459 63.165627 167.45146Q63.665627 166.74834 63.665627 164.63896Q63.665627 162.51396 63.165627 161.82646Q62.68125 161.12334 61.93125 161.12334Q61.2125 161.12334 60.775 161.73271Q60.228127 162.51396 60.228127 164.63896Z" fill-rule="nonzero"/><path fill="#000000" d="M52.15 118.21556L53.259377 118.12181Q53.384377 118.93431 53.821877 119.34056Q54.275 119.74681 54.915627 119.74681Q55.665627 119.74681 56.196877 119.168686Q56.728127 118.59056 56.728127 117.65306Q56.728127 116.74681 56.2125 116.231186Q55.7125 115.699936 54.884377 115.699936Q54.384377 115.699936 53.9625 115.93431Q53.55625 116.168686 53.321877 116.52806L52.3375 116.40306L53.165627 111.99681L57.446877 111.99681L57.446877 112.99681L54.009377 112.99681L53.55625 115.30931Q54.321877 114.762436 55.165627 114.762436Q56.290627 114.762436 57.05625 115.543686Q57.8375 116.324936 57.8375 117.55931Q57.8375 118.71556 57.165627 119.574936Q56.3375 120.606186 54.915627 120.606186Q53.74375 120.606186 52.99375 119.949936Q52.259377 119.293686 52.15 118.21556ZM59.15 116.231186Q59.15 114.699936 59.4625 113.77806Q59.775 112.84056 60.384377 112.34056Q61.009377 111.84056 61.946877 111.84056Q62.634377 111.84056 63.15 112.12181Q63.68125 112.40306 64.025 112.93431Q64.36875 113.449936 64.55625 114.199936Q64.74375 114.949936 64.74375 116.231186Q64.74375 117.74681 64.43125 118.668686Q64.13438 119.59056 63.509377 120.106186Q62.9 120.606186 61.946877 120.606186Q60.7125 120.606186 59.99375 119.71556Q59.15 118.65306 59.15 116.231186ZM60.228127 116.231186Q60.228127 118.34056 60.728127 119.043686Q61.228127 119.74681 61.946877 119.74681Q62.68125 119.74681 63.165627 119.043686Q63.665627 118.34056 63.665627 116.231186Q63.665627 114.106186 63.165627 113.418686Q62.68125 112.71556 61.93125 112.71556Q61.2125 112.71556 60.775 113.324936Q60.228127 114.106186 60.228127 116.231186Z" fill-rule="nonzero"/><path fill="#000000" d="M49.11875 72.05778L48.071877 72.05778L48.071877 65.33903Q47.68125 65.6984 47.05625 66.0734Q46.446877 66.43278 45.9625 66.60465L45.9625 65.58903Q46.8375 65.16715 47.49375 64.58903Q48.165627 63.995277 48.446877 63.432777L49.11875 63.432777L49.11875 72.05778ZM52.15 67.8234Q52.15 66.29215 52.4625 65.37028Q52.775 64.43278 53.384377 63.932777Q54.009377 63.432777 54.946877 63.432777Q55.634377 63.432777 56.15 63.714027Q56.68125 63.995277 57.025 64.52653Q57.36875 65.04215 57.55625 65.79215Q57.74375 66.54215 57.74375 67.8234Q57.74375 69.33903 57.43125 70.2609Q57.134377 71.18278 56.509377 71.6984Q55.9 72.1984 54.946877 72.1984Q53.7125 72.1984 52.99375 71.30778Q52.15 70.24528 52.15 67.8234ZM53.228127 67.8234Q53.228127 69.93278 53.728127 70.6359Q54.228127 71.33903 54.946877 71.33903Q55.68125 71.33903 56.165627 70.6359Q56.665627 69.93278 56.665627 67.8234Q56.665627 65.6984 56.165627 65.0109Q55.68125 64.30778 54.93125 64.30778Q54.2125 64.30778 53.775 64.91715Q53.228127 65.6984 53.228127 67.8234ZM59.15 67.8234Q59.15 66.29215 59.4625 65.37028Q59.775 64.43278 60.384377 63.932777Q61.009377 63.432777 61.946877 63.432777Q62.634377 63.432777 63.15 63.714027Q63.68125 63.995277 64.025 64.52653Q64.36875 65.04215 64.55625 65.79215Q64.74375 66.54215 64.74375 67.8234Q64.74375 69.33903 64.43125 70.2609Q64.13438 71.18278 63.509377 71.6984Q62.9 72.1984 61.946877 72.1984Q60.7125 72.1984 59.99375 71.30778Q59.15 70.24528 59.15 67.8234ZM60.228127 67.8234Q60.228127 69.93278 60.728127 70.6359Q61.228127 71.33903 61.946877 71.33903Q62.68125 71.33903 63.165627 70.6359Q63.665627 69.93278 63.665627 67.8234Q63.665627 65.6984 63.165627 65.0109Q62.68125 64.30778 61.93125 64.30778Q61.2125 64.30778 60.775 64.91715Q60.228127 65.6984 60.228127 67.8234Z" fill-rule="nonzero"/><path fill="#000000" d="M49.11875 23.65L48.071877 23.65L48.071877 16.93125Q47.68125 17.290625 47.05625 17.665625Q46.446877 18.025 45.9625 18.196875L45.9625 17.18125Q46.8375 16.759375 47.49375 16.18125Q48.165627 15.5875 48.446877 15.025L49.11875 15.025L49.11875 23.65ZM52.15 21.4L53.259377 21.30625Q53.384377 22.11875 53.821877 22.525Q54.275 22.93125 54.915627 22.93125Q55.665627 22.93125 56.196877 22.353125Q56.728127 21.775 56.728127 20.8375Q56.728127 19.93125 56.2125 19.415625Q55.7125 18.884375 54.884377 18.884375Q54.384377 18.884375 53.9625 19.11875Q53.55625 19.353125 53.321877 19.7125L52.3375 19.5875L53.165627 15.18125L57.446877 15.18125L57.446877 16.18125L54.009377 16.18125L53.55625 18.49375Q54.321877 17.946875 55.165627 17.946875Q56.290627 17.946875 57.05625 18.728125Q57.8375 19.509375 57.8375 20.74375Q57.8375 21.9 57.165627 22.759375Q56.3375 23.790625 54.915627 23.790625Q53.74375 23.790625 52.99375 23.134375Q52.259377 22.478125 52.15 21.4ZM59.15 19.415625Q59.15 17.884375 59.4625 16.9625Q59.775 16.025 60.384377 15.525Q61.009377 15.025 61.946877 15.025Q62.634377 15.025 63.15 15.30625Q63.68125 15.5875 64.025 16.11875Q64.36875 16.634375 64.55625 17.384375Q64.74375 18.134375 64.74375 19.415625Q64.74375 20.93125 64.43125 21.853125Q64.13438 22.775 63.509377 23.290625Q62.9 23.790625 61.946877 23.790625Q60.7125 23.790625 59.99375 22.9Q59.15 21.8375 59.15 19.415625ZM60.228127 19.415625Q60.228127 21.525 60.728127 22.228125Q61.228127 22.93125 61.946877 22.93125Q62.68125 22.93125 63.165627 22.228125Q63.665627 21.525 63.665627 19.415625Q63.665627 17.290625 63.165627 16.603125Q62.68125 15.9 61.93125 15.9Q61.2125 15.9 60.775 16.509375Q60.228127 17.290625 60.228127 19.415625Z" fill-rule="nonzero"/><path fill="#000000" d="M90.11738 192.98148Q89.03462 191.89871 88.60373 191.02588Q88.16179 190.142 88.23913 189.35754Q88.327515 188.56206 88.990425 187.89914Q89.47656 187.41301 90.04004 187.24728Q90.61456 187.0705 91.233284 187.20308Q91.84095 187.32462 92.50387 187.72237Q93.16678 188.12012 94.07276 189.0261Q95.14447 190.09781 95.57536 190.97064Q96.0173 191.83243 95.939964 192.63896Q95.862625 193.42342 95.18866 194.09738Q94.31583 194.97021 93.177826 194.84868Q91.8299 194.694 90.11738 192.98148ZM90.87973 192.21912Q92.371284 193.71068 93.22202 193.85431Q94.07276 193.99794 94.58099 193.4897Q95.10027 192.97043 94.945595 192.13074Q94.80196 191.28 93.31041 189.78844Q91.80781 188.28584 90.96812 188.15326Q90.128426 187.99858 89.5981 188.52892Q89.08987 189.03714 89.2114 189.77739Q89.37713 190.71652 90.87973 192.21912ZM96.14989 189.29126L95.39858 188.53996L97.69668 186.24187L98.44798 186.99316L96.14989 189.29126ZM99.287674 186.59541L99.93954 185.74467Q100.690834 186.25291 101.28746 186.2308Q101.87303 186.19766 102.31497 185.75572Q102.8453 185.22539 102.8453 184.49619Q102.8453 183.76698 102.303925 183.2256Q101.79569 182.71738 101.12173 182.72842Q100.44777 182.71738 99.92849 183.23665Q99.71857 183.44658 99.48654 183.85538L98.91202 183.10408Q99.00041 183.03778 99.0446 182.99359Q99.51969 182.5185 99.652275 181.89978Q99.78486 181.25897 99.26557 180.73969Q98.85678 180.33089 98.3154 180.34193Q97.76297 180.34193 97.32103 180.78387Q96.89014 181.21477 96.86804 181.78929Q96.856995 182.35277 97.32103 182.9715L96.43715 183.59021Q95.829475 182.71738 95.906815 181.82245Q95.97311 180.91646 96.69126 180.1983Q97.188446 179.70113 97.82926 179.50224Q98.45903 179.29233 99.0446 179.43596Q99.63017 179.57959 100.05002 179.99944Q100.43672 180.38614 100.55825 180.9275Q100.66874 181.45784 100.44777 182.05446Q101.09963 181.64566 101.79569 181.7451Q102.4807 181.8335 103.077324 182.43011Q103.87282 183.2256 103.83967 184.3636Q103.81757 185.49055 102.93369 186.37444Q102.1382 187.16994 101.132774 187.22517Q100.11631 187.26938 99.287674 186.59541ZM102.8453 180.25356Q101.76254 179.17079 101.33165 178.29796Q100.88971 177.41408 100.96705 176.62962Q101.055435 175.83414 101.71835 175.17122Q102.20448 174.68509 102.76796 174.51935Q103.34248 174.34258 103.961205 174.47516Q104.56888 174.5967 105.23179 174.99445Q105.8947 175.3922 106.80068 176.29817Q107.87239 177.36987 108.30328 178.24272Q108.745224 179.1045 108.667885 179.91104Q108.590546 180.6955 107.91658 181.36945Q107.04375 182.2423 105.90575 182.12076Q104.55782 181.96608 102.8453 180.25356ZM103.60765 179.4912Q105.099205 180.98276 105.94994 181.12639Q106.80068 181.27002 107.308914 180.76178Q107.82819 180.24251 107.673515 179.40282Q107.529884 178.55208 106.03833 177.06052Q104.53573 175.55792 103.69604 175.42534Q102.85635 175.27066 102.32602 175.80098Q101.81779 176.30922 101.93932 177.04947Q102.10505 177.9886 103.60765 179.4912Z" fill-rule="nonzero"/><path fill="#000000" d="M132.49675 199.32333L133.14862 198.4726Q133.89992 198.98083 134.49654 198.95874Q135.0821 198.92558 135.52405 198.48364Q136.05438 197.95332 136.05438 197.22412Q136.05438 196.4949 135.513 195.95354Q135.00478 195.4453 134.33081 195.45634Q133.65685 195.4453 133.13757 195.96458Q132.92764 196.1745 132.69563 196.5833L132.12111 195.832Q132.20949 195.7657 132.2537 195.72151Q132.72878 195.24643 132.86136 194.6277Q132.99394 193.9869 132.47466 193.4676Q132.06586 193.0588 131.52448 193.06985Q130.97206 193.06985 130.53012 193.51181Q130.09921 193.9427 130.07712 194.51723Q130.06607 195.0807 130.53012 195.69942L129.64622 196.31813Q129.03856 195.4453 129.1159 194.55037Q129.18219 193.6444 129.90034 192.92622Q130.39754 192.42905 131.03835 192.23018Q131.6681 192.02025 132.2537 192.16388Q132.83926 192.30751 133.25911 192.72736Q133.6458 193.11406 133.76733 193.65544Q133.87782 194.18576 133.65685 194.78238Q134.30872 194.3736 135.00478 194.47302Q135.68979 194.56142 136.2864 195.15804Q137.0819 195.95354 137.04875 197.09154Q137.02666 198.21849 136.14278 199.10237Q135.34727 199.89786 134.34186 199.95311Q133.3254 199.9973 132.49675 199.32333ZM141.85487 193.1693L141.11462 193.90955L136.36374 189.15868Q136.34164 189.68901 136.16487 190.39612Q135.9881 191.08113 135.76712 191.54517L135.04897 190.82701Q135.36937 189.90997 135.42462 189.03714Q135.47986 188.14221 135.28099 187.5456L135.75607 187.0705L141.85487 193.1693ZM142.08688 189.29126L141.33559 188.53996L143.63368 186.24187L144.38498 186.99316L142.08688 189.29126ZM146.10857 179.74532L145.42355 180.54082Q144.88217 180.1983 144.50652 180.17621Q143.87675 180.16516 143.43481 180.6071Q143.08125 180.96066 143.00392 181.43575Q142.92657 182.04341 143.21384 182.75052Q143.5011 183.43553 144.39604 184.35255Q144.25241 183.6786 144.44023 183.09303Q144.6391 182.4964 145.06999 182.0655Q145.81024 181.32526 146.88196 181.3584Q147.96472 181.38051 148.8265 182.2423Q149.40103 182.81682 149.64409 183.56812Q149.88716 184.29732 149.72144 184.99338Q149.54466 185.67839 149.00328 186.21977Q148.06415 187.15889 146.79356 187.05945Q145.52298 186.96002 143.95409 185.39113Q142.18633 183.62335 142.0427 182.176Q141.91011 180.91646 142.87134 179.95525Q143.5895 179.23709 144.45128 179.19289Q145.31306 179.1266 146.10857 179.74532ZM145.68872 185.40218Q146.07541 185.78888 146.58365 185.98775Q147.09187 186.16452 147.56697 186.06508Q148.0531 185.9546 148.38455 185.62314Q148.8486 185.1591 148.81546 184.44095Q148.77126 183.71175 148.1194 183.05988Q147.48962 182.43011 146.78252 182.40802Q146.08646 182.37488 145.57823 182.8831Q145.06999 183.39134 145.08104 184.1095Q145.10315 184.8166 145.68872 185.40218ZM148.7823 180.25356Q147.69955 179.17079 147.26866 178.29796Q146.82672 177.41408 146.90405 176.62962Q146.99245 175.83414 147.65535 175.17122Q148.1415 174.68509 148.70497 174.51936Q149.2795 174.34258 149.89821 174.47516Q150.50587 174.5967 151.1688 174.99445Q151.83171 175.3922 152.73769 176.29817Q153.80939 177.36989 154.24028 178.24272Q154.68224 179.1045 154.60489 179.91104Q154.52754 180.6955 153.85359 181.36946Q152.98076 182.2423 151.84276 182.12076Q150.49483 181.96608 148.7823 180.25356ZM149.54466 179.4912Q151.03621 180.98276 151.88695 181.12639Q152.73769 181.27002 153.24593 180.76178Q153.7652 180.24251 153.61052 179.40282Q153.46689 178.55208 151.97534 177.06052Q150.47273 175.55792 149.63304 175.42534Q148.79335 175.27066 148.26303 175.801Q147.75479 176.30922 147.87633 177.04947Q148.04205 177.9886 149.54466 179.4912Z" fill-rule="nonzero"/><path fill="#000000" d="M179.31764 192.47324L178.63264 193.26874Q178.09126 192.92622 177.7156 192.90413Q177.08585 192.89308 176.6439 193.33502Q176.29034 193.68858 176.21301 194.16367Q176.13567 194.77133 176.42293 195.47844Q176.71019 196.16345 177.60512 197.08047Q177.46149 196.40652 177.64932 195.82095Q177.84819 195.22432 178.27908 194.79343Q179.01933 194.05318 180.09105 194.08632Q181.1738 194.10843 182.03558 194.97021Q182.6101 195.54474 182.85318 196.29604Q183.09625 197.02524 182.93053 197.7213Q182.75374 198.40631 182.21237 198.94768Q181.27324 199.88681 180.00266 199.78737Q178.73207 199.68794 177.16318 198.11905Q175.39542 196.35127 175.25179 194.90392Q175.1192 193.64438 176.08043 192.68317Q176.79858 191.96501 177.66037 191.9208Q178.52216 191.85452 179.31764 192.47324ZM178.8978 198.1301Q179.2845 198.51678 179.79274 198.71567Q180.30096 198.89244 180.77606 198.793Q181.26219 198.68253 181.59364 198.35106Q182.0577 197.88702 182.02454 197.16887Q181.98035 196.43967 181.32848 195.7878Q180.69872 195.15804 179.99161 195.13594Q179.29555 195.1028 178.78732 195.61102Q178.27908 196.11926 178.29013 196.83742Q178.31223 197.54453 178.8978 198.1301ZM187.79189 193.1693L187.05164 193.90955L182.30075 189.15868Q182.27866 189.68901 182.10188 190.39612Q181.92511 191.08112 181.70413 191.54517L180.98598 190.82701Q181.30638 189.90997 181.36163 189.03714Q181.41687 188.14221 181.218 187.5456L181.69308 187.0705L187.79189 193.1693ZM188.0239 189.29126L187.2726 188.53996L189.5707 186.24187L190.32199 186.99316L188.0239 189.29126ZM191.47104 186.6838L192.12291 185.89935Q192.71953 186.3192 193.20567 186.2971Q193.6918 186.25291 194.08955 185.85516Q194.43205 185.51265 194.5315 185.10387Q194.63094 184.67297 194.54254 184.25313Q194.4431 183.82224 194.11165 183.2698Q193.76915 182.70633 193.3051 182.2423Q193.24986 182.18704 193.15042 182.0876Q193.283 182.66212 193.12833 183.28085Q192.9626 183.88852 192.50961 184.3415Q191.74725 185.10387 190.6866 185.08176Q189.61488 185.04861 188.71996 184.15369Q187.79189 183.2256 187.76979 182.12076Q187.75873 181.00485 188.57632 180.18726Q189.1619 179.60168 189.96844 179.43596Q190.78604 179.25919 191.63678 179.60168Q192.47647 179.93314 193.59236 181.04904Q194.75246 182.20914 195.19441 183.15932Q195.63635 184.08739 195.49272 184.96024Q195.34909 185.81096 194.68617 186.47388Q193.96802 187.19203 193.12833 187.25833Q192.27759 187.31357 191.47104 186.6838ZM191.83565 180.9496Q191.19484 180.30879 190.47668 180.27565Q189.76958 180.23145 189.28343 180.71759Q188.78625 181.21477 188.8194 181.99922Q188.85254 182.76157 189.50441 183.41344Q190.07893 183.98796 190.79709 183.99901Q191.51524 184.01006 192.02347 183.50182Q192.54276 182.98254 192.50961 182.28648Q192.47647 181.59042 191.83565 180.9496ZM194.71931 180.25356Q193.63657 179.17079 193.20567 178.29796Q192.76373 177.41408 192.84106 176.62962Q192.92946 175.83414 193.59236 175.17122Q194.0785 174.68509 194.64198 174.51935Q195.2165 174.34258 195.83522 174.47516Q196.44289 174.5967 197.1058 174.99445Q197.76872 175.3922 198.6747 176.29817Q199.7464 177.36987 200.17729 178.24272Q200.61925 179.1045 200.5419 179.91104Q200.46455 180.6955 199.7906 181.36945Q198.91777 182.2423 197.77977 182.12076Q196.43184 181.96608 194.71931 180.25356ZM195.48167 179.4912Q196.97322 180.98276 197.82396 181.12639Q198.6747 181.27002 199.18292 180.76178Q199.70221 180.24251 199.54753 179.40282Q199.4039 178.55208 197.91235 177.06052Q196.40974 175.55792 195.57005 175.42534Q194.73036 175.27066 194.20004 175.80098Q193.6918 176.30922 193.81334 177.04947Q193.97906 177.9886 195.48167 179.4912Z" fill-rule="nonzero"/><path fill="#000000" d="M219.7304 204.36147L220.38225 203.57703Q220.97887 203.99687 221.46501 203.97476Q221.95114 203.93057 222.34889 203.53282Q222.69139 203.19032 222.79083 202.78152Q222.89027 202.35063 222.80188 201.93079Q222.70244 201.4999 222.37099 200.94746Q222.02849 200.38399 221.56444 199.91995Q221.5092 199.86472 221.40976 199.76527Q221.54234 200.3398 221.38766 200.95851Q221.22194 201.5662 220.76895 202.01918Q220.0066 202.78152 218.94594 202.75943Q217.87424 202.72629 216.9793 201.83134Q216.05122 200.90327 216.02913 199.79842Q216.01808 198.68251 216.83566 197.86493Q217.42123 197.27936 218.22778 197.11362Q219.04538 196.93684 219.89612 197.27936Q220.73581 197.61081 221.8517 198.72672Q223.01181 199.88681 223.45375 200.83698Q223.89569 201.76506 223.75206 202.6379Q223.60843 203.48863 222.94551 204.15155Q222.22736 204.8697 221.38766 204.93599Q220.53693 204.99124 219.7304 204.36147ZM220.09499 198.62727Q219.45418 197.98647 218.73602 197.95331Q218.02892 197.90912 217.54277 198.39525Q217.0456 198.89244 217.07874 199.67688Q217.11188 200.43924 217.76375 201.0911Q218.33827 201.66562 219.05643 201.67667Q219.77458 201.68771 220.28282 201.17949Q220.8021 200.6602 220.76895 199.96414Q220.73581 199.2681 220.09499 198.62727ZM228.77914 198.11903L228.0389 198.8593L223.28802 194.10841Q223.26591 194.63875 223.08914 195.34586Q222.91237 196.03087 222.69139 196.4949L221.97324 195.77675Q222.29366 194.85973 222.34889 193.9869Q222.40413 193.09195 222.20526 192.49533L222.68034 192.02025L228.77914 198.11903ZM229.01117 194.241L228.25986 193.4897L230.55795 191.1916L231.30927 191.9429L229.01117 194.241ZM236.55731 190.34087L235.81706 191.08112L231.0662 186.33025Q231.0441 186.86058 230.86732 187.56769Q230.69054 188.25269 230.46957 188.71674L229.75142 187.99858Q230.07182 187.08154 230.12706 186.20871Q230.18231 185.31378 229.98343 184.71716L230.45853 184.24207L236.55731 190.34087ZM241.90482 183.55707L242.62297 184.27522L238.6013 188.29689Q238.33614 188.03172 238.17041 187.68921Q237.91629 187.12575 237.84999 186.39653Q237.79475 185.65628 237.91629 184.49619Q238.09306 182.68422 237.96048 181.86664Q237.83894 181.038 237.4191 180.61815Q236.97716 180.17621 236.35844 180.1983Q235.72868 180.20935 235.22044 180.71759Q234.67906 181.25896 234.67906 181.89978Q234.67906 182.54059 235.24254 183.12617L234.40285 183.81117Q233.61841 182.87206 233.6847 181.92188Q233.75099 180.9496 234.62383 180.07677Q235.49666 179.20393 236.49103 179.18184Q237.4854 179.15974 238.20355 179.8779Q238.56816 180.2425 238.76703 180.75073Q238.9659 181.23686 239.0101 181.98817Q239.05429 182.71738 238.93275 184.18683Q238.82227 185.42427 238.83331 185.83305Q238.84436 186.21976 238.9217 186.54016L241.90482 183.55707ZM240.65633 180.25354Q239.57358 179.17079 239.14268 178.29796Q238.70073 177.41408 238.77808 176.62962Q238.86647 175.83412 239.52937 175.17122Q240.01552 174.68507 240.579 174.51935Q241.15352 174.34258 241.77223 174.47516Q242.3799 174.5967 243.04282 174.99445Q243.70572 175.39218 244.61171 176.29817Q245.68341 177.36987 246.1143 178.2427Q246.55624 179.10449 246.47891 179.91104Q246.40157 180.6955 245.72762 181.36945Q244.85478 182.24228 243.71678 182.12074Q242.36885 181.96606 240.65633 180.25354ZM241.41867 179.4912Q242.91023 180.98276 243.76097 181.12639Q244.61171 181.27002 245.11993 180.76178Q245.63922 180.2425 245.48454 179.4028Q245.34091 178.55206 243.84935 177.06052Q242.34676 175.55792 241.50706 175.42534Q240.66737 175.27066 240.13704 175.80098Q239.62881 176.30922 239.75035 177.04947Q239.91608 177.9886 241.41867 179.4912Z" fill-rule="nonzero"/><path fill="#000000" d="M264.81665 208.01854L264.07642 208.75879L259.32553 204.00792Q259.30344 204.53824 259.12665 205.24535Q258.9499 205.93036 258.7289 206.3944L258.01074 205.67624Q258.33118 204.75922 258.3864 203.88638Q258.44165 202.99144 258.24277 202.39482L258.71786 201.91974L264.81665 208.01854ZM270.16415 201.23473L270.88232 201.95288L266.86063 205.97455Q266.5955 205.70938 266.42975 205.36688Q266.17563 204.8034 266.10934 204.0742Q266.0541 203.33395 266.17563 202.17386Q266.35242 200.3619 266.21982 199.5443Q266.0983 198.71565 265.67844 198.29582Q265.2365 197.85387 264.6178 197.87598Q263.988 197.88702 263.4798 198.39525Q262.93842 198.93663 262.93842 199.57745Q262.93842 200.21826 263.5019 200.80383L262.6622 201.48885Q261.87775 200.54971 261.94403 199.59955Q262.0103 198.62727 262.88318 197.75444Q263.756 196.8816 264.75037 196.8595Q265.74475 196.8374 266.4629 197.55556Q266.82748 197.92017 267.02637 198.42839Q267.22525 198.91454 267.26944 199.66583Q267.31363 200.39503 267.1921 201.8645Q267.0816 203.10193 267.09265 203.51073Q267.1037 203.89743 267.18106 204.21783L270.16415 201.23473ZM268.91568 197.93121Q267.83292 196.84845 267.402 195.97562Q266.96008 195.09174 267.0374 194.3073Q267.1258 193.5118 267.78873 192.84888Q268.27484 192.36275 268.83832 192.19702Q269.41284 192.02025 270.0316 192.15283Q270.63925 192.27435 271.30215 192.6721Q271.96506 193.06985 272.87103 193.97583Q273.94275 195.04755 274.37366 195.92038Q274.81558 196.78217 274.73825 197.58871Q274.66092 198.37315 273.98694 199.04712Q273.1141 199.91995 271.9761 199.79842Q270.6282 199.64374 268.91568 197.93121ZM269.678 197.16887Q271.1696 198.66042 272.02032 198.80405Q272.87103 198.94768 273.37927 198.43945Q273.89856 197.92017 273.7439 197.08047Q273.60025 196.22974 272.1087 194.73819Q270.6061 193.23558 269.76642 193.103Q268.92673 192.94832 268.3964 193.47865Q267.88815 193.98688 268.00967 194.72714Q268.1754 195.66626 269.678 197.16887ZM274.94818 194.241L274.19687 193.4897L276.49496 191.1916L277.24628 191.9429L274.94818 194.241ZM278.08597 191.54515L278.73782 190.69441Q279.48914 191.20265 280.08575 191.18056Q280.67133 191.1474 281.11325 190.70546Q281.6436 190.17514 281.6436 189.44594Q281.6436 188.71672 281.1022 188.17535Q280.594 187.66711 279.92 187.67816Q279.24606 187.66711 278.72678 188.1864Q278.51685 188.39632 278.28482 188.80511L277.7103 188.05382Q277.7987 187.98752 277.8429 187.94333Q278.318 187.46825 278.45056 186.84952Q278.58313 186.20871 278.06387 185.68942Q277.65506 185.28062 277.11368 185.29167Q276.56125 185.29167 276.11932 185.73363Q275.68842 186.16452 275.66632 186.73904Q275.65527 187.30252 276.11932 187.92123L275.23544 188.53995Q274.62778 187.66711 274.7051 186.77219Q274.7714 185.86621 275.48956 185.14804Q275.98672 184.65086 276.62756 184.452Q277.25732 184.24207 277.8429 184.3857Q278.42847 184.52933 278.8483 184.94917Q279.23502 185.33588 279.35654 185.87726Q279.46704 186.40758 279.24606 187.0042Q279.89792 186.59541 280.594 186.69484Q281.279 186.78323 281.8756 187.37985Q282.6711 188.17535 282.63797 189.31335Q282.61588 190.4403 281.732 191.32419Q280.9365 192.11967 279.93106 192.17493Q278.9146 192.21912 278.08597 191.54515ZM283.9196 179.74532L283.2346 180.5408Q282.6932 180.1983 282.31757 180.17621Q281.68777 180.16516 281.24585 180.6071Q280.8923 180.96065 280.81494 181.43575Q280.7376 182.04341 281.02487 182.75052Q281.31213 183.43553 282.20706 184.35255Q282.06345 183.67859 282.25125 183.09302Q282.45013 182.4964 282.88104 182.0655Q283.62128 181.32526 284.693 181.3584Q285.77576 181.3805 286.63754 182.24228Q287.21207 182.8168 287.45514 183.5681Q287.69818 184.29732 287.53247 184.99336Q287.35568 185.67838 286.8143 186.21976Q285.87518 187.15889 284.6046 187.05945Q283.334 186.96 281.76514 185.39111Q279.99734 183.62335 279.85373 182.176Q279.72113 180.91646 280.68237 179.95523Q281.4005 179.23708 282.2623 179.19289Q283.12408 179.12659 283.9196 179.74532ZM283.49976 185.40216Q283.88644 185.78886 284.39468 185.98773Q284.90292 186.16452 285.378 186.06508Q285.86414 185.95459 286.1956 185.62314Q286.65964 185.1591 286.6265 184.44095Q286.58228 183.71173 285.93042 183.05988Q285.30066 182.4301 284.59357 182.408Q283.8975 182.37486 283.38925 182.8831Q282.88104 183.39133 282.8921 184.10948Q282.91418 184.81659 283.49976 185.40216ZM287.9965 181.65671L288.71466 180.80597Q289.37756 181.2921 289.97418 181.27Q290.58185 181.23686 291.03485 180.78387Q291.5652 180.25354 291.53204 179.4691Q291.4989 178.68465 290.83597 178.02174Q290.19516 177.38092 289.46597 177.38092Q288.73676 177.35883 288.15118 177.9444Q287.79764 178.29796 287.66504 178.762Q287.54352 179.21498 287.6319 179.63483L286.84744 180.2425L284.31735 176.54123L287.34464 173.51393L288.05176 174.22104L285.62106 176.65172L286.93585 178.60732Q287.0905 177.67923 287.68713 177.08261Q288.48264 176.28711 289.57645 176.29817Q290.6813 176.29817 291.55414 177.171Q292.37173 177.98859 292.5043 179.07135Q292.64795 180.38612 291.64252 181.39154Q290.81387 182.22018 289.81952 182.28647Q288.83618 182.34172 287.9965 181.65671Z" fill-rule="nonzero"/><path fill="#000000" d="M319.0732 196.4949L319.7251 195.64417Q320.47638 196.15239 321.073 196.1303Q321.65857 196.09715 322.10052 195.65521Q322.63086 195.12488 322.63086 194.39568Q322.63086 193.66647 322.08948 193.12509Q321.58124 192.61687 320.9073 192.62791Q320.2333 192.61687 319.71405 193.13614Q319.50412 193.34607 319.2721 193.75487L318.69757 193.00356Q318.78595 192.93727 318.83017 192.89308Q319.30524 192.41798 319.43784 191.79927Q319.5704 191.15845 319.05112 190.63918Q318.64233 190.23038 318.10095 190.24142Q317.54852 190.24142 317.1066 190.68336Q316.6757 191.11426 316.6536 191.68878Q316.64255 192.25226 317.1066 192.87097L316.2227 193.4897Q315.61502 192.61687 315.69238 191.72192Q315.75867 190.81595 316.4768 190.0978Q316.974 189.6006 317.6148 189.40173Q318.24457 189.19182 318.83017 189.33545Q319.41574 189.47908 319.83557 189.89893Q320.22226 190.28561 320.3438 190.827Q320.45428 191.35733 320.2333 191.95395Q320.8852 191.54515 321.58124 191.64459Q322.26627 191.73297 322.86288 192.3296Q323.65836 193.12509 323.6252 194.26309Q323.60312 195.39005 322.71924 196.27393Q321.92374 197.06943 320.91833 197.12466Q319.90186 197.16885 319.0732 196.4949ZM324.90686 184.69505L324.22183 185.49055Q323.68048 185.14804 323.3048 185.12595Q322.67505 185.1149 322.2331 185.55684Q321.87955 185.9104 321.80222 186.38548Q321.72488 186.99315 322.01215 187.70026Q322.2994 188.38527 323.19434 189.30229Q323.0507 188.62834 323.23853 188.04277Q323.4374 187.44614 323.8683 187.01524Q324.60855 186.275 325.68027 186.30814Q326.763 186.33025 327.6248 187.19203Q328.1993 187.76656 328.44238 188.51785Q328.68546 189.24706 328.5197 189.94312Q328.34296 190.62813 327.80157 191.1695Q326.86246 192.10863 325.59186 192.00919Q324.3213 191.90976 322.75238 190.34087Q320.98462 188.57309 320.841 187.12573Q320.7084 185.8662 321.66962 184.90498Q322.3878 184.18683 323.24957 184.14262Q324.11136 184.07634 324.90686 184.69505ZM324.487 190.35191Q324.87372 190.7386 325.38193 190.93748Q325.89017 191.11426 326.36526 191.01482Q326.8514 190.90434 327.18286 190.57288Q327.64688 190.10884 327.61374 189.39069Q327.56955 188.66148 326.9177 188.00961Q326.28793 187.37985 325.5808 187.35776Q324.88477 187.32462 324.37653 187.83284Q323.8683 188.34108 323.87933 189.05923Q323.90143 189.76634 324.487 190.35191ZM329.8566 179.7453L329.1716 180.5408Q328.63022 180.1983 328.25458 180.17621Q327.6248 180.16515 327.18286 180.6071Q326.8293 180.96065 326.75195 181.43573Q326.67462 182.04341 326.96188 182.75052Q327.24915 183.43552 328.14407 184.35255Q328.00046 183.67859 328.18826 183.09302Q328.38715 182.4964 328.81802 182.0655Q329.5583 181.32526 330.63 181.3584Q331.71277 181.3805 332.57455 182.24228Q333.14908 182.8168 333.39215 183.5681Q333.6352 184.2973 333.46948 184.99336Q333.2927 185.67838 332.7513 186.21976Q331.8122 187.15887 330.54163 187.05945Q329.27103 186.96 327.70215 185.39111Q325.93436 183.62335 325.79074 182.176Q325.65814 180.91646 326.6194 179.95523Q327.33752 179.23708 328.1993 179.19289Q329.0611 179.12659 329.8566 179.7453ZM329.43677 185.40216Q329.82346 185.78886 330.3317 185.98773Q330.83994 186.1645 331.315 186.06508Q331.80115 185.95459 332.1326 185.62314Q332.59665 185.15909 332.5635 184.44093Q332.5193 183.71173 331.86743 183.05988Q331.23767 182.4301 330.53055 182.408Q329.8345 182.37486 329.32626 182.88309Q328.81802 183.39133 328.8291 184.10948Q328.8512 184.81659 329.43677 185.40216ZM336.30896 180.49661L334.64062 178.82828L332.9944 180.47452L332.29834 179.77846L333.94455 178.13222L332.29834 176.486L333.00543 175.77888L334.65167 177.42511L336.30896 175.76784L337.005 176.4639L335.34772 178.12117L337.01605 179.7895L336.30896 180.49661Z" fill-rule="nonzero"/></svg>