<svg version="1.1" viewBox="0.0 0.0 334.0 253.0" fill="none" stroke="none" stroke-linecap="square" stroke-miterlimit="10" width="334" height="253" xmlns:xlink="http://www.w3.org/1999/xlink" xmlns="http://www.w3.org/2000/svg"><path fill="#ffffff" fill-opacity="0.0" d="M0 0L334.0 0L334.0 253.0L0 253.0L0 0Z" fill-rule="nonzero"/><path stroke="#333333" stroke-width="1.0" stroke-linecap="butt" d="M54.5 203.5L321.5 203.5" fill-rule="nonzero"/><path stroke="#cccccc" stroke-width="1.0" stroke-linecap="butt" d="M54.5 162.5L321.5 162.5" fill-rule="nonzero"/><path stroke="#cccccc" stroke-width="1.0" stroke-linecap="butt" d="M54.5 121.5L321.5 121.5" fill-rule="nonzero"/><path stroke="#cccccc" stroke-width="1.0" stroke-linecap="butt" d="M54.5 80.5L321.5 80.5" fill-rule="nonzero"/><path stroke="#cccccc" stroke-width="1.0" stroke-linecap="butt" d="M54.5 39.5L321.5 39.5" fill-rule="nonzero"/><clipPath id="id_0"><path d="M54.5 39.083332L321.35 39.083332L321.35 203.5L54.5 203.5L54.5 39.083332Z" clip-rule="nonzero"/></clipPath><path stroke="#000000" stroke-width="2.0" stroke-linecap="butt" stroke-opacity="0.0" clip-path="url(#id_0)" d="M104.0 204.0L72.0 204.0L72.0 151.0L104.0 151.0Z" fill-rule="nonzero"/><path fill="#4285f4" clip-path="url(#id_0)" d="M104.0 204.0L72.0 204.0L72.0 151.0L104.0 151.0Z" fill-rule="nonzero"/><path stroke="#000000" stroke-width="2.0" stroke-linecap="butt" stroke-opacity="0.0" clip-path="url(#id_0)" d="M154.0 204.0L122.0 204.0L122.0 194.0L154.0 194.0Z" fill-rule="nonzero"/><path fill="#4285f4" clip-path="url(#id_0)" d="M154.0 204.0L122.0 204.0L122.0 194.0L154.0 194.0Z" fill-rule="nonzero"/><path stroke="#000000" stroke-width="2.0" stroke-linecap="butt" stroke-opacity="0.0" clip-path="url(#id_0)" d="M204.0 204.0L172.0 204.0L172.0 200.0L204.0 200.0Z" fill-rule="nonzero"/><path fill="#4285f4" clip-path="url(#id_0)" d="M204.0 204.0L172.0 204.0L172.0 200.0L204.0 200.0Z" fill-rule="nonzero"/><path stroke="#000000" stroke-width="2.0" stroke-linecap="butt" stroke-opacity="0.0" clip-path="url(#id_0)" d="M254.0 204.0L222.0 204.0L222.0 200.0L254.0 200.0Z" fill-rule="nonzero"/><path fill="#4285f4" clip-path="url(#id_0)" d="M254.0 204.0L222.0 204.0L222.0 200.0L254.0 200.0Z" fill-rule="nonzero"/><path stroke="#000000" stroke-width="2.0" stroke-linecap="butt" stroke-opacity="0.0" clip-path="url(#id_0)" d="M304.0 204.0L272.0 204.0L272.0 204.0L304.0 204.0Z" fill-rule="nonzero"/><path fill="#4285f4" clip-path="url(#id_0)" d="M304.0 204.0L272.0 204.0L272.0 204.0L304.0 204.0Z" fill-rule="nonzero"/><path stroke="#000000" stroke-width="2.0" stroke-linecap="butt" stroke-opacity="0.0" clip-path="url(#id_0)" d="M104.0 151.0L72.0 151.0L72.0 109.0L104.0 109.0Z" fill-rule="nonzero"/><path fill="#ea4335" clip-path="url(#id_0)" d="M104.0 151.0L72.0 151.0L72.0 109.0L104.0 109.0Z" fill-rule="nonzero"/><path stroke="#000000" stroke-width="2.0" stroke-linecap="butt" stroke-opacity="0.0" clip-path="url(#id_0)" d="M154.0 194.0L122.0 194.0L122.0 177.0L154.0 177.0Z" fill-rule="nonzero"/><path fill="#ea4335" clip-path="url(#id_0)" d="M154.0 194.0L122.0 194.0L122.0 177.0L154.0 177.0Z" fill-rule="nonzero"/><path stroke="#000000" stroke-width="2.0" stroke-linecap="butt" stroke-opacity="0.0" clip-path="url(#id_0)" d="M204.0 200.0L172.0 200.0L172.0 192.0L204.0 192.0Z" fill-rule="nonzero"/><path fill="#ea4335" clip-path="url(#id_0)" d="M204.0 200.0L172.0 200.0L172.0 192.0L204.0 192.0Z" fill-rule="nonzero"/><path stroke="#000000" stroke-width="2.0" stroke-linecap="butt" stroke-opacity="0.0" clip-path="url(#id_0)" d="M254.0 200.0L222.0 200.0L222.0 200.0L254.0 200.0Z" fill-rule="nonzero"/><path fill="#ea4335" clip-path="url(#id_0)" d="M254.0 200.0L222.0 200.0L222.0 200.0L254.0 200.0Z" fill-rule="nonzero"/><path stroke="#000000" stroke-width="2.0" stroke-linecap="butt" stroke-opacity="0.0" clip-path="url(#id_0)" d="M304.0 204.0L272.0 204.0L272.0 203.0L304.0 203.0Z" fill-rule="nonzero"/><path fill="#ea4335" clip-path="url(#id_0)" d="M304.0 204.0L272.0 204.0L272.0 203.0L304.0 203.0Z" fill-rule="nonzero"/><path stroke="#000000" stroke-width="2.0" stroke-linecap="butt" stroke-opacity="0.0" clip-path="url(#id_0)" d="M104.0 109.0L72.0 109.0L72.0 51.0C72.0 49.89543 72.89543 49.0 74.0 49.0L102.0 49.0C103.10457 49.0 104.0 49.89543 104.0 51.0Z" fill-rule="nonzero"/><path fill="#fbbc04" clip-path="url(#id_0)" d="M104.0 109.0L72.0 109.0L72.0 51.0C72.0 49.89543 72.89543 49.0 74.0 49.0L102.0 49.0C103.10457 49.0 104.0 49.89543 104.0 51.0Z" fill-rule="nonzero"/><path stroke="#000000" stroke-width="2.0" stroke-linecap="butt" stroke-opacity="0.0" clip-path="url(#id_0)" d="M154.0 177.0L122.0 177.0L122.0 158.0C122.0 156.89543 122.89543 156.0 124.0 156.0L152.0 156.0C153.10457 156.0 154.0 156.89543 154.0 158.0Z" fill-rule="nonzero"/><path fill="#fbbc04" clip-path="url(#id_0)" d="M154.0 177.0L122.0 177.0L122.0 158.0C122.0 156.89543 122.89543 156.0 124.0 156.0L152.0 156.0C153.10457 156.0 154.0 156.89543 154.0 158.0Z" fill-rule="nonzero"/><path stroke="#000000" stroke-width="2.0" stroke-linecap="butt" stroke-opacity="0.0" clip-path="url(#id_0)" d="M204.0 192.0L172.0 192.0L172.0 186.0C172.0 184.89543 172.89543 184.0 174.0 184.0L202.0 184.0C203.10457 184.0 204.0 184.89543 204.0 186.0Z" fill-rule="nonzero"/><path fill="#fbbc04" clip-path="url(#id_0)" d="M204.0 192.0L172.0 192.0L172.0 186.0C172.0 184.89543 172.89543 184.0 174.0 184.0L202.0 184.0C203.10457 184.0 204.0 184.89543 204.0 186.0Z" fill-rule="nonzero"/><path stroke="#000000" stroke-width="2.0" stroke-linecap="butt" stroke-opacity="0.0" clip-path="url(#id_0)" d="M254.0 200.0L222.0 200.0L222.0 198.0C222.0 196.89543 222.89543 196.0 224.0 196.0L252.0 196.0C253.10457 196.0 254.0 196.89543 254.0 198.0Z" fill-rule="nonzero"/><path fill="#fbbc04" clip-path="url(#id_0)" d="M254.0 200.0L222.0 200.0L222.0 198.0C222.0 196.89543 222.89543 196.0 224.0 196.0L252.0 196.0C253.10457 196.0 254.0 196.89543 254.0 198.0Z" fill-rule="nonzero"/><path stroke="#000000" stroke-width="2.0" stroke-linecap="butt" stroke-opacity="0.0" clip-path="url(#id_0)" d="M304.0 203.0L272.0 203.0L272.0 201.0C272.0 199.89543 272.89542 199.0 274.0 199.0L302.0 199.0C303.10458 199.0 304.0 199.89543 304.0 201.0Z" fill-rule="nonzero"/><path fill="#fbbc04" clip-path="url(#id_0)" d="M304.0 203.0L272.0 203.0L272.0 201.0C272.0 199.89543 272.89542 199.0 274.0 199.0L302.0 199.0C303.10458 199.0 304.0 199.89543 304.0 201.0Z" fill-rule="nonzero"/><path fill="#000000" d="M174.99512 238.91539L178.29199 230.32164L179.51074 230.32164L183.02637 238.91539L181.74512 238.91539L180.72949 236.30602L177.15137 236.30602L176.19824 238.91539L174.99512 238.91539ZM177.47949 235.38414L180.38574 235.38414L179.49512 233.00914Q179.07324 231.93102 178.88574 231.22789Q178.71387 232.05602 178.41699 232.86852L177.47949 235.38414ZM182.60449 239.43102L183.63574 239.58727Q183.69824 240.05602 183.99512 240.27477Q184.38574 240.57164 185.05762 240.57164Q185.79199 240.57164 186.18262 240.27477Q186.58887 239.97789 186.72949 239.46227Q186.82324 239.13414 186.80762 238.10289Q186.12012 238.91539 185.08887 238.91539Q183.80762 238.91539 183.10449 237.99352Q182.40137 237.05602 182.40137 235.77477Q182.40137 234.88414 182.71387 234.13414Q183.04199 233.36852 183.65137 232.96227Q184.26074 232.55602 185.08887 232.55602Q186.19824 232.55602 186.91699 233.44664L186.91699 232.69664L187.88574 232.69664L187.88574 238.07164Q187.88574 239.52477 187.58887 240.13414Q187.29199 240.74352 186.65137 241.08727Q186.01074 241.44664 185.07324 241.44664Q183.96387 241.44664 183.27637 240.94664Q182.58887 240.44664 182.60449 239.43102ZM183.47949 235.69664Q183.47949 236.91539 183.96387 237.47789Q184.44824 238.04039 185.18262 238.04039Q185.91699 238.04039 186.40137 237.47789Q186.90137 236.91539 186.90137 235.72789Q186.90137 234.58727 186.38574 234.00914Q185.88574 233.43102 185.16699 233.43102Q184.46387 233.43102 183.96387 234.00914Q183.47949 234.57164 183.47949 235.69664ZM194.05762 236.91539L195.15137 237.04039Q194.90137 237.99352 194.19824 238.52477Q193.49512 239.05602 192.41699 239.05602Q191.05762 239.05602 190.24512 238.21227Q189.44824 237.36852 189.44824 235.85289Q189.44824 234.29039 190.26074 233.43102Q191.07324 232.55602 192.35449 232.55602Q193.60449 232.55602 194.38574 233.39977Q195.18262 234.24352 195.18262 235.79039Q195.18262 235.88414 195.18262 236.07164L190.54199 236.07164Q190.60449 237.10289 191.12012 237.64977Q191.63574 238.18102 192.41699 238.18102Q192.99512 238.18102 193.40137 237.88414Q193.82324 237.57164 194.05762 236.91539ZM190.60449 235.21227L194.07324 235.21227Q194.01074 234.41539 193.68262 234.02477Q193.16699 233.41539 192.37012 233.41539Q191.63574 233.41539 191.13574 233.89977Q190.65137 234.38414 190.60449 235.21227ZM196.80762 231.54039L196.80762 230.32164L197.87012 230.32164L197.87012 231.54039L196.80762 231.54039ZM196.80762 238.91539L196.80762 232.69664L197.87012 232.69664L197.87012 238.91539L196.80762 238.91539ZM199.80762 238.91539L199.80762 232.69664L200.74512 232.69664L200.74512 233.57164Q201.43262 232.55602 202.72949 232.55602Q203.29199 232.55602 203.76074 232.75914Q204.24512 232.96227 204.47949 233.29039Q204.71387 233.61852 204.80762 234.05602Q204.85449 234.35289 204.85449 235.08727L204.85449 238.91539L203.80762 238.91539L203.80762 235.13414Q203.80762 234.47789 203.68262 234.16539Q203.55762 233.85289 203.24512 233.66539Q202.93262 233.46227 202.51074 233.46227Q201.83887 233.46227 201.33887 233.89977Q200.85449 234.32164 200.85449 235.50914L200.85449 238.91539L199.80762 238.91539ZM206.60449 239.43102L207.63574 239.58727Q207.69824 240.05602 207.99512 240.27477Q208.38574 240.57164 209.05762 240.57164Q209.79199 240.57164 210.18262 240.27477Q210.58887 239.97789 210.72949 239.46227Q210.82324 239.13414 210.80762 238.10289Q210.12012 238.91539 209.08887 238.91539Q207.80762 238.91539 207.10449 237.99352Q206.40137 237.05602 206.40137 235.77477Q206.40137 234.88414 206.71387 234.13414Q207.04199 233.36852 207.65137 232.96227Q208.26074 232.55602 209.08887 232.55602Q210.19824 232.55602 210.91699 233.44664L210.91699 232.69664L211.88574 232.69664L211.88574 238.07164Q211.88574 239.52477 211.58887 240.13414Q211.29199 240.74352 210.65137 241.08727Q210.01074 241.44664 209.07324 241.44664Q207.96387 241.44664 207.27637 240.94664Q206.58887 240.44664 206.60449 239.43102ZM207.47949 235.69664Q207.47949 236.91539 207.96387 237.47789Q208.44824 238.04039 209.18262 238.04039Q209.91699 238.04039 210.40137 237.47789Q210.90137 236.91539 210.90137 235.72789Q210.90137 234.58727 210.38574 234.00914Q209.88574 233.43102 209.16699 233.43102Q208.46387 233.43102 207.96387 234.00914Q207.47949 234.57164 207.47949 235.69664Z" fill-rule="nonzero"/><path fill="#000000" d="M20.622116 144.24852L12.028366 144.24852L12.028366 143.18602L16.934616 143.18602L14.403366 140.70164L14.403366 139.32664L16.700241 141.71727L20.622116 139.09227L20.622116 140.38914L17.434616 142.45164L18.153366 143.18602L20.622116 143.18602L20.622116 144.24852ZM20.622116 137.9829L19.418991 137.9829L19.418991 136.77977L20.622116 136.77977Q21.278366 136.77977 21.684616 137.01414Q22.106491 137.24852 22.325241 137.74852L21.872116 138.0454Q21.731491 137.71727 21.434616 137.56102Q21.153366 137.40477 20.622116 137.37352L20.622116 137.9829ZM20.622116 132.09227L12.028366 132.09227L12.028366 125.889145L13.043991 125.889145L13.043991 130.95164L15.668991 130.95164L15.668991 126.201645L16.684616 126.201645L16.684616 130.95164L19.606491 130.95164L19.606491 125.68602L20.622116 125.68602L20.622116 132.09227ZM12.028366 118.482895L12.028366 117.34227L16.997116 117.34227Q18.293991 117.34227 19.059616 117.639145Q19.809616 117.93602 20.293991 118.701645Q20.762741 119.46727 20.762741 120.701645Q20.762741 121.90477 20.356491 122.68602Q19.934616 123.451645 19.153366 123.77977Q18.356491 124.107895 16.997116 124.107895L12.028366 124.107895L12.028366 122.96727L16.981491 122.96727Q18.106491 122.96727 18.637741 122.764145Q19.168991 122.545395 19.465866 122.045395Q19.747116 121.52977 19.747116 120.795395Q19.747116 119.545395 19.184616 119.014145Q18.606491 118.482895 16.981491 118.482895L12.028366 118.482895ZM20.622116 115.107895L12.028366 115.107895L12.028366 111.295395Q12.028366 110.139145 12.262741 109.545395Q12.497116 108.951645 13.090866 108.59227Q13.668991 108.232895 14.372116 108.232895Q15.293991 108.232895 15.918991 108.826645Q16.543991 109.420395 16.715866 110.65477Q16.934616 110.201645 17.137741 109.96727Q17.590866 109.46727 18.278366 109.02977L20.622116 107.52977L20.622116 108.96727L18.840866 110.09227Q18.059616 110.59227 17.653366 110.920395Q17.247116 111.232895 17.090866 111.49852Q16.918991 111.74852 16.840866 112.014145Q16.809616 112.201645 16.809616 112.639145L16.809616 113.96727L20.622116 113.96727L20.622116 115.107895ZM15.825241 113.96727L15.825241 111.514145Q15.825241 110.74852 15.668991 110.31102Q15.497116 109.857895 15.153366 109.639145Q14.793991 109.40477 14.372116 109.40477Q13.762741 109.40477 13.372116 109.857895Q12.981491 110.295395 12.981491 111.24852L12.981491 113.96727L15.825241 113.96727Z" fill-rule="nonzero"/><path fill="#000000" d="M42.0 203.26562Q42.0 201.73438 42.3125 200.8125Q42.625 199.875 43.234375 199.375Q43.859375 198.875 44.796875 198.875Q45.484375 198.875 46.0 199.15625Q46.53125 199.4375 46.875 199.96875Q47.21875 200.48438 47.40625 201.23438Q47.59375 201.98438 47.59375 203.26562Q47.59375 204.78125 47.28125 205.70312Q46.984375 206.625 46.359375 207.14062Q45.75 207.64062 44.796875 207.64062Q43.5625 207.64062 42.84375 206.75Q42.0 205.6875 42.0 203.26562ZM43.078125 203.26562Q43.078125 205.375 43.578125 206.07812Q44.078125 206.78125 44.796875 206.78125Q45.53125 206.78125 46.015625 206.07812Q46.515625 205.375 46.515625 203.26562Q46.515625 201.14062 46.015625 200.45312Q45.53125 199.75 44.78125 199.75Q44.0625 199.75 43.625 200.35938Q43.078125 201.14062 43.078125 203.26562Z" fill-rule="nonzero"/><path fill="#000000" d="M35.0 164.14583L36.109375 164.05208Q36.234375 164.86458 36.671875 165.27083Q37.125 165.67708 37.765625 165.67708Q38.515625 165.67708 39.046875 165.09895Q39.578125 164.52083 39.578125 163.58333Q39.578125 162.67708 39.0625 162.16145Q38.5625 161.6302 37.734375 161.6302Q37.234375 161.6302 36.8125 161.86458Q36.40625 162.09895 36.171875 162.45833L35.1875 162.33333L36.015625 157.92708L40.296875 157.92708L40.296875 158.92708L36.859375 158.92708L36.40625 161.23958Q37.171875 160.6927 38.015625 160.6927Q39.140625 160.6927 39.90625 161.47395Q40.6875 162.2552 40.6875 163.48958Q40.6875 164.64583 40.015625 165.5052Q39.1875 166.53645 37.765625 166.53645Q36.59375 166.53645 35.84375 165.8802Q35.109375 165.22395 35.0 164.14583ZM42.0 162.16145Q42.0 160.6302 42.3125 159.70833Q42.625 158.77083 43.234375 158.27083Q43.859375 157.77083 44.796875 157.77083Q45.484375 157.77083 46.0 158.05208Q46.53125 158.33333 46.875 158.86458Q47.21875 159.3802 47.40625 160.1302Q47.59375 160.8802 47.59375 162.16145Q47.59375 163.67708 47.28125 164.59895Q46.984375 165.52083 46.359375 166.03645Q45.75 166.53645 44.796875 166.53645Q43.5625 166.53645 42.84375 165.64583Q42.0 164.58333 42.0 162.16145ZM43.078125 162.16145Q43.078125 164.27083 43.578125 164.97395Q44.078125 165.67708 44.796875 165.67708Q45.53125 165.67708 46.015625 164.97395Q46.515625 164.27083 46.515625 162.16145Q46.515625 160.03645 46.015625 159.34895Q45.53125 158.64583 44.78125 158.64583Q44.0625 158.64583 43.625 159.2552Q43.078125 160.03645 43.078125 162.16145Z" fill-rule="nonzero"/><path fill="#000000" d="M38.96875 118.291664L37.921875 118.291664L37.921875 111.572914Q37.53125 111.93229 36.90625 112.30729Q36.296875 112.666664 35.8125 112.83854L35.8125 111.822914Q36.6875 111.40104 37.34375 110.822914Q38.015625 110.229164 38.296875 109.666664L38.96875 109.666664L38.96875 118.291664ZM42.0 114.05729Q42.0 112.52604 42.3125 111.604164Q42.625 110.666664 43.234375 110.166664Q43.859375 109.666664 44.796875 109.666664Q45.484375 109.666664 46.0 109.947914Q46.53125 110.229164 46.875 110.760414Q47.21875 111.27604 47.40625 112.02604Q47.59375 112.77604 47.59375 114.05729Q47.59375 115.572914 47.28125 116.49479Q46.984375 117.416664 46.359375 117.93229Q45.75 118.43229 44.796875 118.43229Q43.5625 118.43229 42.84375 117.541664Q42.0 116.479164 42.0 114.05729ZM43.078125 114.05729Q43.078125 116.166664 43.578125 116.86979Q44.078125 117.572914 44.796875 117.572914Q45.53125 117.572914 46.015625 116.86979Q46.515625 116.166664 46.515625 114.05729Q46.515625 111.93229 46.015625 111.24479Q45.53125 110.541664 44.78125 110.541664Q44.0625 110.541664 43.625 111.15104Q43.078125 111.93229 43.078125 114.05729Z" fill-rule="nonzero"/><path fill="#000000" d="M42.0 128.0573Q42.0 126.52605 42.3125 125.60417Q42.625 124.66667 43.234375 124.16667Q43.859375 123.66667 44.796875 123.66667Q45.484375 123.66667 46.0 123.94792Q46.53125 124.22917 46.875 124.76042Q47.21875 125.27605 47.40625 126.02605Q47.59375 126.77605 47.59375 128.0573Q47.59375 129.57292 47.28125 130.4948Q46.984375 131.41667 46.359375 131.9323Q45.75 132.4323 44.796875 132.4323Q43.5625 132.4323 42.84375 131.54167Q42.0 130.47917 42.0 128.0573ZM43.078125 128.0573Q43.078125 130.16667 43.578125 130.8698Q44.078125 131.57292 44.796875 131.57292Q45.53125 131.57292 46.015625 130.8698Q46.515625 130.16667 46.515625 128.0573Q46.515625 125.9323 46.015625 125.2448Q45.53125 124.54167 44.78125 124.54167Q44.0625 124.54167 43.625 125.15105Q43.078125 125.9323 43.078125 128.0573Z" fill-rule="nonzero"/><path fill="#000000" d="M38.96875 77.1875L37.921875 77.1875L37.921875 70.46875Q37.53125 70.828125 36.90625 71.203125Q36.296875 71.5625 35.8125 71.734375L35.8125 70.71875Q36.6875 70.296875 37.34375 69.71875Q38.015625 69.125 38.296875 68.5625L38.96875 68.5625L38.96875 77.1875ZM42.0 74.9375L43.109375 74.84375Q43.234375 75.65625 43.671875 76.0625Q44.125 76.46875 44.765625 76.46875Q45.515625 76.46875 46.046875 75.890625Q46.578125 75.3125 46.578125 74.375Q46.578125 73.46875 46.0625 72.953125Q45.5625 72.421875 44.734375 72.421875Q44.234375 72.421875 43.8125 72.65625Q43.40625 72.890625 43.171875 73.25L42.1875 73.125L43.015625 68.71875L47.296875 68.71875L47.296875 69.71875L43.859375 69.71875L43.40625 72.03125Q44.171875 71.484375 45.015625 71.484375Q46.140625 71.484375 46.90625 72.265625Q47.6875 73.046875 47.6875 74.28125Q47.6875 75.4375 47.015625 76.296875Q46.1875 77.328125 44.765625 77.328125Q43.59375 77.328125 42.84375 76.671875Q42.109375 76.015625 42.0 74.9375Z" fill-rule="nonzero"/><path fill="#000000" d="M42.0 86.953125Q42.0 85.421875 42.3125 84.5Q42.625 83.5625 43.234375 83.0625Q43.859375 82.5625 44.796875 82.5625Q45.484375 82.5625 46.0 82.84375Q46.53125 83.125 46.875 83.65625Q47.21875 84.171875 47.40625 84.921875Q47.59375 85.671875 47.59375 86.953125Q47.59375 88.46875 47.28125 89.390625Q46.984375 90.3125 46.359375 90.828125Q45.75 91.328125 44.796875 91.328125Q43.5625 91.328125 42.84375 90.4375Q42.0 89.375 42.0 86.953125ZM43.078125 86.953125Q43.078125 89.0625 43.578125 89.765625Q44.078125 90.46875 44.796875 90.46875Q45.53125 90.46875 46.015625 89.765625Q46.515625 89.0625 46.515625 86.953125Q46.515625 84.828125 46.015625 84.140625Q45.53125 83.4375 44.78125 83.4375Q44.0625 83.4375 43.625 84.046875Q43.078125 84.828125 43.078125 86.953125Z" fill-rule="nonzero"/><path fill="#000000" d="M40.546875 35.067707L40.546875 36.083332L34.859375 36.083332Q34.859375 35.708332 34.984375 35.348957Q35.203125 34.770832 35.671875 34.208332Q36.15625 33.645832 37.0625 32.911457Q38.46875 31.755207 38.953125 31.083332Q39.453125 30.411457 39.453125 29.817707Q39.453125 29.192707 39.0 28.770832Q38.546875 28.333332 37.828125 28.333332Q37.0625 28.333332 36.609375 28.786457Q36.15625 29.239582 36.140625 30.052082L35.0625 29.942707Q35.171875 28.723957 35.890625 28.098957Q36.625 27.458332 37.859375 27.458332Q39.09375 27.458332 39.8125 28.145832Q40.53125 28.833332 40.53125 29.848957Q40.53125 30.364582 40.3125 30.864582Q40.109375 31.348957 39.609375 31.911457Q39.125 32.458332 38.0 33.411457Q37.046875 34.208332 36.765625 34.505207Q36.5 34.786457 36.328125 35.067707L40.546875 35.067707ZM42.0 31.848957Q42.0 30.317707 42.3125 29.395832Q42.625 28.458332 43.234375 27.958332Q43.859375 27.458332 44.796875 27.458332Q45.484375 27.458332 46.0 27.739582Q46.53125 28.020832 46.875 28.552082Q47.21875 29.067707 47.40625 29.817707Q47.59375 30.567707 47.59375 31.848957Q47.59375 33.364582 47.28125 34.286457Q46.984375 35.208332 46.359375 35.723957Q45.75 36.223957 44.796875 36.223957Q43.5625 36.223957 42.84375 35.333332Q42.0 34.270832 42.0 31.848957ZM43.078125 31.848957Q43.078125 33.958332 43.578125 34.661457Q44.078125 35.364582 44.796875 35.364582Q45.53125 35.364582 46.015625 34.661457Q46.515625 33.958332 46.515625 31.848957Q46.515625 29.723957 46.015625 29.036457Q45.53125 28.333332 44.78125 28.333332Q44.0625 28.333332 43.625 28.942707Q43.078125 29.723957 43.078125 31.848957Z" fill-rule="nonzero"/><path fill="#000000" d="M42.0 45.848957Q42.0 44.317707 42.3125 43.395832Q42.625 42.458332 43.234375 41.958332Q43.859375 41.458332 44.796875 41.458332Q45.484375 41.458332 46.0 41.739582Q46.53125 42.020832 46.875 42.552082Q47.21875 43.067707 47.40625 43.817707Q47.59375 44.567707 47.59375 45.848957Q47.59375 47.364582 47.28125 48.286457Q46.984375 49.208332 46.359375 49.723957Q45.75 50.223957 44.796875 50.223957Q43.5625 50.223957 42.84375 49.333332Q42.0 48.270832 42.0 45.848957ZM43.078125 45.848957Q43.078125 47.958332 43.578125 48.661457Q44.078125 49.364582 44.796875 49.364582Q45.53125 49.364582 46.015625 48.661457Q46.515625 47.958332 46.515625 45.848957Q46.515625 43.723957 46.015625 43.036457Q45.53125 42.333332 44.78125 42.333332Q44.0625 42.333332 43.625 42.942707Q43.078125 43.723957 43.078125 45.848957Z" fill-rule="nonzero"/><path fill="#000000" d="M76.16799 216.26562Q76.16799 214.73438 76.48049 213.8125Q76.79299 212.875 77.40237 212.375Q78.02737 211.875 78.96487 211.875Q79.65237 211.875 80.16799 212.15625Q80.69924 212.4375 81.04299 212.96875Q81.38674 213.48438 81.57424 214.23438Q81.76174 214.98438 81.76174 216.26562Q81.76174 217.78125 81.44924 218.70312Q81.15237 219.625 80.52737 220.14062Q79.91799 220.64062 78.96487 220.64062Q77.73049 220.64062 77.01174 219.75Q76.16799 218.6875 76.16799 216.26562ZM77.24612 216.26562Q77.24612 218.375 77.74612 219.07812Q78.24612 219.78125 78.96487 219.78125Q79.69924 219.78125 80.18362 219.07812Q80.68362 218.375 80.68362 216.26562Q80.68362 214.14062 80.18362 213.45312Q79.69924 212.75 78.94924 212.75Q78.23049 212.75 77.79299 213.35938Q77.24612 214.14062 77.24612 216.26562ZM83.04299 217.92188L83.04299 216.85938L86.29299 216.85938L86.29299 217.92188L83.04299 217.92188ZM87.16799 218.23438L88.23049 218.09375Q88.40237 218.98438 88.83987 219.39062Q89.27737 219.78125 89.90237 219.78125Q90.65237 219.78125 91.16799 219.26562Q91.68362 218.75 91.68362 217.98438Q91.68362 217.26562 91.19924 216.79688Q90.73049 216.3125 89.99612 216.3125Q89.69924 216.3125 89.24612 216.4375L89.37112 215.5Q89.48049 215.51562 89.54299 215.51562Q90.21487 215.51562 90.74612 215.17188Q91.29299 214.8125 91.29299 214.07812Q91.29299 213.5 90.90237 213.125Q90.51174 212.73438 89.88674 212.73438Q89.27737 212.73438 88.85549 213.125Q88.44924 213.51562 88.33987 214.28125L87.27737 214.09375Q87.46487 213.04688 88.15237 212.46875Q88.83987 211.875 89.85549 211.875Q90.55862 211.875 91.15237 212.1875Q91.74612 212.48438 92.05862 213.0Q92.37112 213.51562 92.37112 214.10938Q92.37112 214.65625 92.07424 215.125Q91.77737 215.57812 91.19924 215.84375Q91.94924 216.01562 92.37112 216.57812Q92.79299 217.125 92.79299 217.96875Q92.79299 219.09375 91.96487 219.875Q91.15237 220.65625 89.90237 220.65625Q88.77737 220.65625 88.02737 219.98438Q87.27737 219.29688 87.16799 218.23438ZM94.16799 216.26562Q94.16799 214.73438 94.48049 213.8125Q94.79299 212.875 95.40237 212.375Q96.02737 211.875 96.96487 211.875Q97.65237 211.875 98.16799 212.15625Q98.69924 212.4375 99.04299 212.96875Q99.38674 213.48438 99.57424 214.23438Q99.76174 214.98438 99.76174 216.26562Q99.76174 217.78125 99.44924 218.70312Q99.15237 219.625 98.52737 220.14062Q97.91799 220.64062 96.96487 220.64062Q95.73049 220.64062 95.01174 219.75Q94.16799 218.6875 94.16799 216.26562ZM95.24612 216.26562Q95.24612 218.375 95.74612 219.07812Q96.24612 219.78125 96.96487 219.78125Q97.69924 219.78125 98.18362 219.07812Q98.68362 218.375 98.68362 216.26562Q98.68362 214.14062 98.18362 213.45312Q97.69924 212.75 96.94924 212.75Q96.23049 212.75 95.79299 213.35938Q95.24612 214.14062 95.24612 216.26562Z" fill-rule="nonzero"/><path fill="#000000" d="M122.54649 218.23438L123.60899 218.09375Q123.78087 218.98438 124.21837 219.39062Q124.65587 219.78125 125.28087 219.78125Q126.03087 219.78125 126.54649 219.26562Q127.06212 218.75 127.06212 217.98438Q127.06212 217.26562 126.57774 216.79688Q126.10899 216.3125 125.37462 216.3125Q125.07774 216.3125 124.62462 216.4375L124.74962 215.5Q124.85899 215.51562 124.92149 215.51562Q125.59337 215.51562 126.12462 215.17188Q126.67149 214.8125 126.67149 214.07812Q126.67149 213.5 126.28087 213.125Q125.89024 212.73438 125.26524 212.73438Q124.65587 212.73438 124.23399 213.125Q123.82774 213.51562 123.71837 214.28125L122.65587 214.09375Q122.84337 213.04688 123.53087 212.46875Q124.21837 211.875 125.23399 211.875Q125.93712 211.875 126.53087 212.1875Q127.12462 212.48438 127.43712 213.0Q127.74962 213.51562 127.74962 214.10938Q127.74962 214.65625 127.45274 215.125Q127.15587 215.57812 126.57774 215.84375Q127.32774 216.01562 127.74962 216.57812Q128.1715 217.125 128.1715 217.96875Q128.1715 219.09375 127.34337 219.875Q126.53087 220.65625 125.28087 220.65625Q124.15587 220.65625 123.40587 219.98438Q122.65587 219.29688 122.54649 218.23438ZM133.51524 220.5L132.46837 220.5L132.46837 213.78125Q132.07774 214.14062 131.45274 214.51562Q130.84337 214.875 130.359 215.04688L130.359 214.03125Q131.234 213.60938 131.89024 213.03125Q132.56212 212.4375 132.84337 211.875L133.51524 211.875L133.51524 220.5ZM136.4215 217.92188L136.4215 216.85938L139.6715 216.85938L139.6715 217.92188L136.4215 217.92188ZM146.01524 214.01562L144.96837 214.09375Q144.82774 213.46875 144.57774 213.1875Q144.14024 212.73438 143.51524 212.73438Q143.01524 212.73438 142.62462 213.01562Q142.14024 213.39062 141.84337 214.09375Q141.56212 214.78125 141.5465 216.0625Q141.9215 215.48438 142.46837 215.20312Q143.03087 214.92188 143.64024 214.92188Q144.68712 214.92188 145.4215 215.70312Q146.1715 216.48438 146.1715 217.70312Q146.1715 218.51562 145.81212 219.21875Q145.46837 219.90625 144.859 220.28125Q144.24962 220.64062 143.484 220.64062Q142.15587 220.64062 141.32774 219.67188Q140.49962 218.70312 140.49962 216.48438Q140.49962 213.98438 141.4215 212.85938Q142.21837 211.875 143.57774 211.875Q144.59337 211.875 145.234 212.45312Q145.89024 213.01562 146.01524 214.01562ZM141.71837 217.71875Q141.71837 218.26562 141.93712 218.76562Q142.1715 219.25 142.57774 219.51562Q142.99962 219.78125 143.46837 219.78125Q144.12462 219.78125 144.609 219.25Q145.09337 218.70312 145.09337 217.78125Q145.09337 216.89062 144.609 216.375Q144.14024 215.85938 143.4215 215.85938Q142.70274 215.85938 142.20274 216.375Q141.71837 216.89062 141.71837 217.71875ZM147.5465 216.26562Q147.5465 214.73438 147.859 213.8125Q148.1715 212.875 148.78087 212.375Q149.40587 211.875 150.34337 211.875Q151.03087 211.875 151.5465 212.15625Q152.07774 212.4375 152.4215 212.96875Q152.76524 213.48438 152.95274 214.23438Q153.14024 214.98438 153.14024 216.26562Q153.14024 217.78125 152.82774 218.70312Q152.53087 219.625 151.90587 220.14062Q151.2965 220.64062 150.34337 220.64062Q149.109 220.64062 148.39024 219.75Q147.5465 218.6875 147.5465 216.26562ZM148.62462 216.26562Q148.62462 218.375 149.12462 219.07812Q149.62462 219.78125 150.34337 219.78125Q151.07774 219.78125 151.56212 219.07812Q152.06212 218.375 152.06212 216.26562Q152.06212 214.14062 151.56212 213.45312Q151.07774 212.75 150.32774 212.75Q149.609 212.75 149.1715 213.35938Q148.62462 214.14062 148.62462 216.26562Z" fill-rule="nonzero"/><path fill="#000000" d="M177.89375 214.01562L176.84688 214.09375Q176.70625 213.46875 176.45625 213.1875Q176.01875 212.73438 175.39375 212.73438Q174.89375 212.73438 174.50313 213.01562Q174.01875 213.39062 173.72188 214.09375Q173.44063 214.78125 173.425 216.0625Q173.8 215.48438 174.34688 215.20312Q174.90938 214.92188 175.51875 214.92188Q176.56563 214.92188 177.3 215.70312Q178.05 216.48438 178.05 217.70312Q178.05 218.51562 177.69063 219.21875Q177.34688 219.90625 176.7375 220.28125Q176.12813 220.64062 175.3625 220.64062Q174.03438 220.64062 173.20625 219.67188Q172.37813 218.70312 172.37813 216.48438Q172.37813 213.98438 173.3 212.85938Q174.09688 211.875 175.45625 211.875Q176.47188 211.875 177.1125 212.45312Q177.76875 213.01562 177.89375 214.01562ZM173.59688 217.71875Q173.59688 218.26562 173.81563 218.76562Q174.05 219.25 174.45625 219.51562Q174.87813 219.78125 175.34688 219.78125Q176.00313 219.78125 176.4875 219.25Q176.97188 218.70312 176.97188 217.78125Q176.97188 216.89062 176.4875 216.375Q176.01875 215.85938 175.3 215.85938Q174.58125 215.85938 174.08125 216.375Q173.59688 216.89062 173.59688 217.71875ZM183.39375 220.5L182.34688 220.5L182.34688 213.78125Q181.95625 214.14062 181.33125 214.51562Q180.72188 214.875 180.2375 215.04688L180.2375 214.03125Q181.1125 213.60938 181.76875 213.03125Q182.44063 212.4375 182.72188 211.875L183.39375 211.875L183.39375 220.5ZM186.3 217.92188L186.3 216.85938L189.55 216.85938L189.55 217.92188L186.3 217.92188ZM190.58125 218.51562L191.59688 218.42188Q191.72188 219.14062 192.08125 219.46875Q192.45625 219.78125 193.01875 219.78125Q193.50313 219.78125 193.8625 219.5625Q194.2375 219.32812 194.47188 218.96875Q194.70625 218.59375 194.8625 217.96875Q195.01875 217.32812 195.01875 216.67188Q195.01875 216.59375 195.01875 216.45312Q194.70625 216.95312 194.15938 217.28125Q193.6125 217.59375 192.97188 217.59375Q191.89375 217.59375 191.15938 216.82812Q190.425 216.04688 190.425 214.78125Q190.425 213.46875 191.19063 212.67188Q191.97188 211.875 193.12813 211.875Q193.95625 211.875 194.64375 212.32812Q195.34688 212.78125 195.70625 213.625Q196.06563 214.45312 196.06563 216.03125Q196.06563 217.67188 195.70625 218.65625Q195.3625 219.625 194.64375 220.14062Q193.94063 220.64062 193.00313 220.64062Q191.9875 220.64062 191.34688 220.09375Q190.70625 219.53125 190.58125 218.51562ZM194.89375 214.71875Q194.89375 213.8125 194.40938 213.28125Q193.94063 212.75 193.25313 212.75Q192.55 212.75 192.01875 213.32812Q191.50313 213.89062 191.50313 214.8125Q191.50313 215.625 192.00313 216.14062Q192.50313 216.65625 193.22188 216.65625Q193.95625 216.65625 194.425 216.14062Q194.89375 215.625 194.89375 214.71875ZM197.425 216.26562Q197.425 214.73438 197.7375 213.8125Q198.05 212.875 198.65938 212.375Q199.28438 211.875 200.22188 211.875Q200.90938 211.875 201.425 212.15625Q201.95625 212.4375 202.3 212.96875Q202.64375 213.48438 202.83125 214.23438Q203.01875 214.98438 203.01875 216.26562Q203.01875 217.78125 202.70625 218.70312Q202.40938 219.625 201.78438 220.14062Q201.175 220.64062 200.22188 220.64062Q198.9875 220.64062 198.26875 219.75Q197.425 218.6875 197.425 216.26562ZM198.50313 216.26562Q198.50313 218.375 199.00313 219.07812Q199.50313 219.78125 200.22188 219.78125Q200.95625 219.78125 201.44063 219.07812Q201.94063 218.375 201.94063 216.26562Q201.94063 214.14062 201.44063 213.45312Q200.95625 212.75 200.20625 212.75Q199.4875 212.75 199.05 213.35938Q198.50313 214.14062 198.50313 216.26562Z" fill-rule="nonzero"/><path fill="#000000" d="M218.95975 218.51562L219.97537 218.42188Q220.10037 219.14062 220.45975 219.46875Q220.83475 219.78125 221.39725 219.78125Q221.88162 219.78125 222.241 219.5625Q222.616 219.32812 222.85037 218.96875Q223.08475 218.59375 223.241 217.96875Q223.39725 217.32812 223.39725 216.67188Q223.39725 216.59375 223.39725 216.45312Q223.08475 216.95312 222.53787 217.28125Q221.991 217.59375 221.35037 217.59375Q220.27225 217.59375 219.53787 216.82812Q218.8035 216.04688 218.8035 214.78125Q218.8035 213.46875 219.56912 212.67188Q220.35037 211.875 221.50662 211.875Q222.33475 211.875 223.02225 212.32812Q223.72537 212.78125 224.08475 213.625Q224.44412 214.45312 224.44412 216.03125Q224.44412 217.67188 224.08475 218.65625Q223.741 219.625 223.02225 220.14062Q222.31912 220.64062 221.38162 220.64062Q220.366 220.64062 219.72537 220.09375Q219.08475 219.53125 218.95975 218.51562ZM223.27225 214.71875Q223.27225 213.8125 222.78787 213.28125Q222.31912 212.75 221.63162 212.75Q220.9285 212.75 220.39725 213.32812Q219.88162 213.89062 219.88162 214.8125Q219.88162 215.625 220.38162 216.14062Q220.88162 216.65625 221.60037 216.65625Q222.33475 216.65625 222.8035 216.14062Q223.27225 215.625 223.27225 214.71875ZM229.77225 220.5L228.72537 220.5L228.72537 213.78125Q228.33475 214.14062 227.70975 214.51562Q227.10037 214.875 226.616 215.04688L226.616 214.03125Q227.491 213.60938 228.14725 213.03125Q228.81912 212.4375 229.10037 211.875L229.77225 211.875L229.77225 220.5ZM232.6785 217.92188L232.6785 216.85938L235.9285 216.85938L235.9285 217.92188L232.6785 217.92188ZM240.77225 220.5L239.72537 220.5L239.72537 213.78125Q239.33475 214.14062 238.70975 214.51562Q238.10037 214.875 237.616 215.04688L237.616 214.03125Q238.491 213.60938 239.14725 213.03125Q239.81912 212.4375 240.10037 211.875L240.77225 211.875L240.77225 220.5ZM249.35037 219.48438L249.35037 220.5L243.66287 220.5Q243.66287 220.125 243.78787 219.76562Q244.00662 219.1875 244.47537 218.625Q244.95975 218.0625 245.866 217.32812Q247.27225 216.17188 247.75662 215.5Q248.25662 214.82812 248.25662 214.23438Q248.25662 213.60938 247.8035 213.1875Q247.35037 212.75 246.63162 212.75Q245.866 212.75 245.41287 213.20312Q244.95975 213.65625 244.94412 214.46875L243.866 214.35938Q243.97537 213.14062 244.69412 212.51562Q245.4285 211.875 246.66287 211.875Q247.89725 211.875 248.616 212.5625Q249.33475 213.25 249.33475 214.26562Q249.33475 214.78125 249.116 215.28125Q248.91287 215.76562 248.41287 216.32812Q247.9285 216.875 246.8035 217.82812Q245.85037 218.625 245.56912 218.92188Q245.3035 219.20312 245.13162 219.48438L249.35037 219.48438ZM250.8035 216.26562Q250.8035 214.73438 251.116 213.8125Q251.4285 212.875 252.03787 212.375Q252.66287 211.875 253.60037 211.875Q254.28787 211.875 254.8035 212.15625Q255.33475 212.4375 255.6785 212.96875Q256.02225 213.48438 256.20975 214.23438Q256.39725 214.98438 256.39725 216.26562Q256.39725 217.78125 256.08475 218.70312Q255.78787 219.625 255.16287 220.14062Q254.5535 220.64062 253.60037 220.64062Q252.366 220.64062 251.64725 219.75Q250.8035 218.6875 250.8035 216.26562ZM251.88162 216.26562Q251.88162 218.375 252.38162 219.07812Q252.88162 219.78125 253.60037 219.78125Q254.33475 219.78125 254.81912 219.07812Q255.31912 218.375 255.31912 216.26562Q255.31912 214.14062 254.81912 213.45312Q254.33475 212.75 253.58475 212.75Q252.866 212.75 252.4285 213.35938Q251.88162 214.14062 251.88162 216.26562Z" fill-rule="nonzero"/><path fill="#000000" d="M278.15076 220.5L277.10388 220.5L277.10388 213.78125Q276.71326 214.14062 276.08826 214.51562Q275.47888 214.875 274.9945 215.04688L274.9945 214.03125Q275.8695 213.60938 276.52576 213.03125Q277.19763 212.4375 277.47888 211.875L278.15076 211.875L278.15076 220.5ZM286.72888 219.48438L286.72888 220.5L281.04138 220.5Q281.04138 220.125 281.16638 219.76562Q281.38513 219.1875 281.85388 218.625Q282.33826 218.0625 283.2445 217.32812Q284.65076 216.17188 285.13513 215.5Q285.63513 214.82812 285.63513 214.23438Q285.63513 213.60938 285.182 213.1875Q284.72888 212.75 284.01013 212.75Q283.2445 212.75 282.79138 213.20312Q282.33826 213.65625 282.32263 214.46875L281.2445 214.35938Q281.35388 213.14062 282.07263 212.51562Q282.807 211.875 284.04138 211.875Q285.27576 211.875 285.9945 212.5625Q286.71326 213.25 286.71326 214.26562Q286.71326 214.78125 286.4945 215.28125Q286.29138 215.76562 285.79138 216.32812Q285.307 216.875 284.182 217.82812Q283.22888 218.625 282.94763 218.92188Q282.682 219.20312 282.51013 219.48438L286.72888 219.48438ZM288.182 216.26562Q288.182 214.73438 288.4945 213.8125Q288.807 212.875 289.41638 212.375Q290.04138 211.875 290.97888 211.875Q291.66638 211.875 292.182 212.15625Q292.71326 212.4375 293.057 212.96875Q293.40076 213.48438 293.58826 214.23438Q293.77576 214.98438 293.77576 216.26562Q293.77576 217.78125 293.46326 218.70312Q293.16638 219.625 292.54138 220.14062Q291.932 220.64062 290.97888 220.64062Q289.7445 220.64062 289.02576 219.75Q288.182 218.6875 288.182 216.26562ZM289.26013 216.26562Q289.26013 218.375 289.76013 219.07812Q290.26013 219.78125 290.97888 219.78125Q291.71326 219.78125 292.19763 219.07812Q292.69763 218.375 292.69763 216.26562Q292.69763 214.14062 292.19763 213.45312Q291.71326 212.75 290.96326 212.75Q290.2445 212.75 289.807 213.35938Q289.26013 214.14062 289.26013 216.26562ZM297.682 219.10938L297.682 216.75L295.35388 216.75L295.35388 215.76562L297.682 215.76562L297.682 213.4375L298.682 213.4375L298.682 215.76562L301.02576 215.76562L301.02576 216.75L298.682 216.75L298.682 219.10938L297.682 219.10938Z" fill-rule="nonzero"/><path fill="#fbbc04" d="M66.98606 13.748218C66.98606 13.195933 67.43378 12.748218 67.98606 12.748218L77.98606 12.748218C78.538345 12.748218 78.98606 13.195933 78.98606 13.748218L78.98606 23.748219C78.98606 24.300503 78.538345 24.748219 77.98606 24.748219L67.98606 24.748219C67.43378 24.748219 66.98606 24.300503 66.98606 23.748219Z" fill-rule="nonzero"/><path fill="#1a1a1a" d="M87.907936 22.748219L87.907936 14.154469L89.064186 14.154469L93.57981 20.904469L93.57981 14.154469L94.67356 14.154469L94.67356 22.748219L93.501686 22.748219L88.98606 15.998219L88.98606 22.748219L87.907936 22.748219ZM95.970436 22.748219L99.26731 14.154469L100.48606 14.154469L104.001686 22.748219L102.720436 22.748219L101.70481 20.138844L98.126686 20.138844L97.17356 22.748219L95.970436 22.748219ZM98.45481 19.216969L101.36106 19.216969L100.470436 16.841969Q100.04856 15.763844 99.86106 15.060719Q99.689186 15.888844 99.39231 16.701344L98.45481 19.216969ZM103.876686 22.748219L103.876686 14.154469L105.595436 14.154469L107.626686 20.232594Q107.907936 21.091969 108.032936 21.513844Q108.17356 21.045094 108.48606 20.138844L110.54856 14.154469L112.07981 14.154469L112.07981 22.748219L110.98606 22.748219L110.98606 15.560719L108.48606 22.748219L107.45481 22.748219L104.970436 15.435719L104.970436 22.748219L103.876686 22.748219ZM112.939186 22.748219L112.939186 14.154469L119.14231 14.154469L119.14231 15.170094L114.07981 15.170094L114.07981 17.795094L118.82981 17.795094L118.82981 18.810719L114.07981 18.810719L114.07981 21.732594L119.345436 21.732594L119.345436 22.748219L112.939186 22.748219ZM120.92356 22.748219L120.92356 14.154469L124.73606 14.154469Q125.89231 14.154469 126.48606 14.388844Q127.07981 14.623219 127.439186 15.216969Q127.79856 15.795094 127.79856 16.498219Q127.79856 17.420094 127.20481 18.045094Q126.61106 18.670094 125.376686 18.841969Q125.82981 19.060719 126.064186 19.263844Q126.564186 19.716969 127.001686 20.404469L128.50168 22.748219L127.064186 22.748219L125.939186 20.966969Q125.439186 20.185719 125.11106 19.779469Q124.79856 19.373219 124.532936 19.216969Q124.282936 19.045094 124.01731 18.966969Q123.82981 18.935719 123.39231 18.935719L122.064186 18.935719L122.064186 22.748219L120.92356 22.748219ZM122.064186 17.951344L124.51731 17.951344Q125.282936 17.951344 125.720436 17.795094Q126.17356 17.623219 126.39231 17.279469Q126.626686 16.920094 126.626686 16.498219Q126.626686 15.888844 126.17356 15.498219Q125.73606 15.107594 124.782936 15.107594L122.064186 15.107594L122.064186 17.951344Z" fill-rule="nonzero"/><path fill="#ea4335" d="M144.98605 13.748218C144.98605 13.195933 145.43378 12.748218 145.98605 12.748218L155.98605 12.748218C156.53835 12.748218 156.98605 13.195933 156.98605 13.748218L156.98605 23.748219C156.98605 24.300503 156.53835 24.748219 155.98605 24.748219L145.98605 24.748219C145.43378 24.748219 144.98605 24.300503 144.98605 23.748219Z" fill-rule="nonzero"/><path fill="#1a1a1a" d="M164.97043 22.748219L168.2673 14.154469L169.48605 14.154469L173.00168 22.748219L171.72043 22.748219L170.7048 20.138844L167.12668 20.138844L166.17355 22.748219L164.97043 22.748219ZM167.4548 19.216969L170.36105 19.216969L169.47043 16.841969Q169.04855 15.763844 168.86105 15.060719Q168.68918 15.888844 168.3923 16.701344L167.4548 19.216969ZM172.90793 22.748219L172.90793 14.154469L176.15793 14.154469Q177.00168 14.154469 177.4548 14.232594Q178.09543 14.341969 178.5173 14.638844Q178.9548 14.935719 179.2048 15.466969Q179.47043 15.998219 179.47043 16.638844Q179.47043 17.732594 178.7673 18.498219Q178.0798 19.248219 176.25168 19.248219L174.04855 19.248219L174.04855 22.748219L172.90793 22.748219ZM174.04855 18.248219L176.2673 18.248219Q177.37668 18.248219 177.8298 17.841969Q178.29855 17.420094 178.29855 16.670094Q178.29855 16.138844 178.0173 15.763844Q177.75168 15.373219 177.31418 15.248219Q177.0173 15.170094 176.25168 15.170094L174.04855 15.170094L174.04855 18.248219ZM179.97043 22.748219L183.2673 14.154469L184.48605 14.154469L188.00168 22.748219L186.72043 22.748219L185.7048 20.138844L182.12668 20.138844L181.17355 22.748219L179.97043 22.748219ZM182.4548 19.216969L185.36105 19.216969L184.47043 16.841969Q184.04855 15.763844 183.86105 15.060719Q183.68918 15.888844 183.3923 16.701344L182.4548 19.216969ZM194.04855 19.732594L195.17355 20.029469Q194.81418 21.420094 193.8923 22.154469Q192.97043 22.888844 191.62668 22.888844Q190.23605 22.888844 189.36105 22.326344Q188.48605 21.763844 188.03293 20.701344Q187.5798 19.623219 187.5798 18.388844Q187.5798 17.045094 188.09543 16.045094Q188.61105 15.045094 189.54855 14.529469Q190.50168 14.013844 191.6423 14.013844Q192.92355 14.013844 193.79855 14.670094Q194.68918 15.326344 195.03293 16.513844L193.90793 16.779469Q193.61105 15.841969 193.03293 15.420094Q192.47043 14.982594 191.61105 14.982594Q190.62668 14.982594 189.9548 15.466969Q189.29855 15.935719 189.0173 16.732594Q188.75168 17.529469 188.75168 18.388844Q188.75168 19.482594 189.06418 20.295094Q189.3923 21.107594 190.06418 21.513844Q190.73605 21.920094 191.53293 21.920094Q192.48605 21.920094 193.1423 21.373219Q193.81418 20.826344 194.04855 19.732594Z" fill-rule="nonzero"/><path fill="#4285f4" d="M211.98605 13.748218C211.98605 13.195933 212.43378 12.748218 212.98605 12.748218L222.98605 12.748218C223.53835 12.748218 223.98605 13.195933 223.98605 13.748218L223.98605 23.748219C223.98605 24.300503 223.53835 24.748219 222.98605 24.748219L212.98605 24.748219C212.43378 24.748219 211.98605 24.300503 211.98605 23.748219Z" fill-rule="nonzero"/><path fill="#1a1a1a" d="M232.93918 22.748219L232.93918 14.154469L239.1423 14.154469L239.1423 15.170094L234.0798 15.170094L234.0798 17.795094L238.8298 17.795094L238.8298 18.810719L234.0798 18.810719L234.0798 21.732594L239.34543 21.732594L239.34543 22.748219L232.93918 22.748219ZM240.87668 22.748219L240.87668 14.154469L242.59543 14.154469L244.62668 20.232594Q244.90793 21.091969 245.03293 21.513844Q245.17355 21.045094 245.48605 20.138844L247.54855 14.154469L249.0798 14.154469L249.0798 22.748219L247.98605 22.748219L247.98605 15.560719L245.48605 22.748219L244.4548 22.748219L241.97043 15.435719L241.97043 22.748219L240.87668 22.748219ZM249.93918 22.748219L249.93918 14.154469L256.1423 14.154469L256.1423 15.170094L251.0798 15.170094L251.0798 17.795094L255.8298 17.795094L255.8298 18.810719L251.0798 18.810719L251.0798 21.732594L256.34543 21.732594L256.34543 22.748219L249.93918 22.748219ZM256.97043 22.748219L260.2673 14.154469L261.48605 14.154469L265.00168 22.748219L263.72043 22.748219L262.7048 20.138844L259.12668 20.138844L258.17355 22.748219L256.97043 22.748219ZM259.4548 19.216969L262.36105 19.216969L261.47043 16.841969Q261.04855 15.763844 260.86105 15.060719Q260.68918 15.888844 260.3923 16.701344L259.4548 19.216969Z" fill-rule="nonzero"/></svg>