<svg version="1.1" viewBox="0.0 0.0 376.0 253.0" fill="none" stroke="none" stroke-linecap="square" stroke-miterlimit="10" width="376" height="253" xmlns:xlink="http://www.w3.org/1999/xlink" xmlns="http://www.w3.org/2000/svg"><path fill="#ffffff" fill-opacity="0.0" d="M0 0L376.0 0L376.0 253.0L0 253.0L0 0Z" fill-rule="nonzero"/><path fill="#4285f4" d="M242.09 12.65C299.2755 12.65 347.58765 55.069954 354.98376 111.77516L298.5369 119.13758C294.83884 90.78498 270.68277 69.575 242.09 69.575Z" fill-rule="nonzero"/><path fill="#ea4335" d="M354.98376 111.77516C361.11362 158.7722 337.48694 204.65079 295.66806 226.95503C253.8492 249.25928 202.58685 243.32303 166.97209 212.05188C131.35733 180.78072 118.840904 130.7167 135.54915 86.36434C152.2574 42.011986 194.69489 12.65 242.09 12.65L242.09 69.575C218.39244 69.575 197.1737 84.256 188.81958 106.432175C180.46545 128.60835 186.72366 153.64035 204.53105 169.27594C222.33842 184.91151 247.9696 187.87964 268.87903 176.72752C289.78845 165.5754 301.6018 142.6361 298.5369 119.13758Z" fill-rule="nonzero"/><path fill="#000000" d="M298.22687 64.73447L298.22687 66.51572L291.4925 66.51572Q291.60187 65.50009 292.14874 64.59384Q292.69562 63.68759 294.32062 62.18759Q295.6175 60.984467 295.91437 60.546967Q296.305 59.953217 296.305 59.37509Q296.305 58.734467 295.96124 58.390717Q295.6175 58.046967 295.00812 58.046967Q294.39874 58.046967 294.03937 58.40634Q293.69562 58.765717 293.63312 59.609467L291.72687 59.421967Q291.89874 57.828217 292.78937 57.140717Q293.69562 56.453217 295.055 56.453217Q296.53937 56.453217 297.38312 57.25009Q298.22687 58.046967 298.22687 59.234467Q298.22687 59.921967 297.97687 60.53134Q297.7425 61.140717 297.22687 61.81259Q296.8675 62.25009 295.96124 63.09384Q295.055 63.921967 294.805 64.20322Q294.57062 64.46884 294.41437 64.73447L298.22687 64.73447ZM299.77374 63.93759L301.68 63.734467Q301.77374 64.39072 302.16437 64.76572Q302.57062 65.14072 303.10187 65.14072Q303.69562 65.14072 304.1175 64.65634Q304.53937 64.17197 304.53937 63.18759Q304.53937 62.265717 304.1175 61.81259Q303.71124 61.34384 303.03937 61.34384Q302.21124 61.34384 301.555 62.078217L300.00812 61.84384L300.9925 56.62509L306.07062 56.62509L306.07062 58.421967L302.44562 58.421967L302.14874 60.12509Q302.78937 59.81259 303.46124 59.81259Q304.72687 59.81259 305.6175 60.75009Q306.50812 61.671967 306.50812 63.15634Q306.50812 64.39072 305.78937 65.35947Q304.82062 66.68759 303.08624 66.68759Q301.69562 66.68759 300.82062 65.95322Q299.94562 65.20322 299.77374 63.93759Z" fill-rule="nonzero"/><path fill="#000000" d="M179.28125 191.07803Q178.53125 190.76553 178.1875 190.21866Q177.85938 189.65616 177.85938 188.99991Q177.85938 187.89053 178.64062 187.15616Q179.42188 186.42178 180.85938 186.42178Q182.28125 186.42178 183.07812 187.15616Q183.875 187.89053 183.875 188.99991Q183.875 189.70303 183.5 190.24991Q183.14062 190.79678 182.48438 191.07803Q183.32812 191.40616 183.75 192.06241Q184.1875 192.70303 184.1875 193.53116Q184.1875 194.92178 183.29688 195.79678Q182.42188 196.65616 180.95312 196.65616Q179.57812 196.65616 178.67188 195.93741Q177.59375 195.09366 177.59375 193.62491Q177.59375 192.81241 178.0 192.14053Q178.40625 191.45303 179.28125 191.07803ZM179.67188 189.14053Q179.67188 189.71866 179.98438 190.04678Q180.3125 190.35928 180.85938 190.35928Q181.40625 190.35928 181.73438 190.03116Q182.0625 189.70303 182.0625 189.14053Q182.0625 188.59366 181.73438 188.28116Q181.40625 187.95303 180.875 187.95303Q180.32812 187.95303 180.0 188.28116Q179.67188 188.60928 179.67188 189.14053ZM179.5 193.43741Q179.5 194.23428 179.90625 194.67178Q180.3125 195.10928 180.92188 195.10928Q181.51562 195.10928 181.89062 194.68741Q182.28125 194.26553 182.28125 193.45303Q182.28125 192.74991 181.89062 192.32803Q181.5 191.89053 180.89062 191.89053Q180.1875 191.89053 179.84375 192.39053Q179.5 192.87491 179.5 193.43741ZM189.39062 196.48428L189.39062 194.46866L185.29688 194.46866L185.29688 192.78116L189.64062 186.42178L191.25 186.42178L191.25 192.78116L192.5 192.78116L192.5 194.46866L191.25 194.46866L191.25 196.48428L189.39062 196.48428ZM189.39062 192.78116L189.39062 189.35928L187.09375 192.78116L189.39062 192.78116Z" fill-rule="nonzero"/><path fill="#4285f4" d="M24.65 19.65C24.65 22.963709 21.963709 25.65 18.65 25.65C15.336291 25.65 12.65 22.963709 12.65 19.65C12.65 16.336292 15.336291 13.65 18.65 13.65C21.963709 13.65 24.65 16.336292 24.65 19.65Z" fill-rule="nonzero"/><path fill="#1a1a1a" d="M33.5875 23.65L33.5875 15.05625L37.4 15.05625Q38.55625 15.05625 39.15 15.290625Q39.74375 15.525 40.103127 16.11875Q40.4625 16.696875 40.4625 17.4Q40.4625 18.321875 39.86875 18.946875Q39.275 19.571875 38.040627 19.74375Q38.49375 19.9625 38.728127 20.165625Q39.228127 20.61875 39.665627 21.30625L41.165627 23.65L39.728127 23.65L38.603127 21.86875Q38.103127 21.0875 37.775 20.68125Q37.4625 20.275 37.196877 20.11875Q36.946877 19.946875 36.68125 19.86875Q36.49375 19.8375 36.05625 19.8375L34.728127 19.8375L34.728127 23.65L33.5875 23.65ZM34.728127 18.853125L37.18125 18.853125Q37.946877 18.853125 38.384377 18.696875Q38.8375 18.525 39.05625 18.18125Q39.290627 17.821875 39.290627 17.4Q39.290627 16.790625 38.8375 16.4Q38.4 16.009375 37.446877 16.009375L34.728127 16.009375L34.728127 18.853125ZM46.696877 21.65L47.790627 21.775Q47.540627 22.728125 46.8375 23.259375Q46.134377 23.790625 45.05625 23.790625Q43.696877 23.790625 42.884377 22.946875Q42.0875 22.103125 42.0875 20.5875Q42.0875 19.025 42.9 18.165625Q43.7125 17.290625 44.99375 17.290625Q46.24375 17.290625 47.025 18.134375Q47.821877 18.978125 47.821877 20.525Q47.821877 20.61875 47.821877 20.80625L43.18125 20.80625Q43.24375 21.8375 43.759377 22.384375Q44.275 22.915625 45.05625 22.915625Q45.634377 22.915625 46.040627 22.61875Q46.4625 22.30625 46.696877 21.65ZM43.24375 19.946875L46.7125 19.946875Q46.65 19.15 46.321877 18.759375Q45.80625 18.15 45.009377 18.15Q44.275 18.15 43.775 18.634375Q43.290627 19.11875 43.24375 19.946875ZM53.509377 21.36875L54.540627 21.509375Q54.36875 22.571875 53.665627 23.18125Q52.9625 23.790625 51.946877 23.790625Q50.665627 23.790625 49.884377 22.9625Q49.11875 22.11875 49.11875 20.55625Q49.11875 19.55625 49.446877 18.80625Q49.790627 18.040625 50.4625 17.665625Q51.15 17.290625 51.9625 17.290625Q52.9625 17.290625 53.603127 17.80625Q54.259377 18.30625 54.446877 19.259375L53.415627 19.415625Q53.275 18.790625 52.9 18.478125Q52.525 18.15 51.99375 18.15Q51.196877 18.15 50.696877 18.728125Q50.196877 19.290625 50.196877 20.525Q50.196877 21.790625 50.68125 22.353125Q51.165627 22.915625 51.93125 22.915625Q52.55625 22.915625 52.9625 22.540625Q53.384377 22.165625 53.509377 21.36875ZM55.05625 20.540625Q55.05625 18.80625 56.009377 17.978125Q56.80625 17.290625 57.9625 17.290625Q59.24375 17.290625 60.05625 18.134375Q60.884377 18.9625 60.884377 20.446875Q60.884377 21.65 60.525 22.3375Q60.165627 23.025 59.4625 23.415625Q58.775 23.790625 57.9625 23.790625Q56.665627 23.790625 55.853127 22.9625Q55.05625 22.11875 55.05625 20.540625ZM56.134377 20.540625Q56.134377 21.728125 56.65 22.321875Q57.18125 22.915625 57.9625 22.915625Q58.759377 22.915625 59.275 22.321875Q59.790627 21.728125 59.790627 20.509375Q59.790627 19.353125 59.259377 18.759375Q58.74375 18.165625 57.9625 18.165625Q57.18125 18.165625 56.65 18.759375Q56.134377 19.3375 56.134377 20.540625ZM62.446877 23.65L62.446877 17.43125L63.384377 17.43125L63.384377 18.30625Q64.07188 17.290625 65.36875 17.290625Q65.93125 17.290625 66.4 17.49375Q66.88438 17.696875 67.11875 18.025Q67.35313 18.353125 67.44688 18.790625Q67.49375 19.0875 67.49375 19.821875L67.49375 23.65L66.44688 23.65L66.44688 19.86875Q66.44688 19.2125 66.32188 18.9Q66.19688 18.5875 65.88438 18.4Q65.57188 18.196875 65.15 18.196875Q64.47813 18.196875 63.978127 18.634375Q63.49375 19.05625 63.49375 20.24375L63.49375 23.65L62.446877 23.65ZM73.50938 21.36875L74.54063 21.509375Q74.36875 22.571875 73.66563 23.18125Q72.9625 23.790625 71.94688 23.790625Q70.66563 23.790625 69.88438 22.9625Q69.11875 22.11875 69.11875 20.55625Q69.11875 19.55625 69.44688 18.80625Q69.79063 18.040625 70.4625 17.665625Q71.15 17.290625 71.9625 17.290625Q72.9625 17.290625 73.60313 17.80625Q74.25938 18.30625 74.44688 19.259375L73.41563 19.415625Q73.275 18.790625 72.9 18.478125Q72.525 18.15 71.99375 18.15Q71.19688 18.15 70.69688 18.728125Q70.19688 19.290625 70.19688 20.525Q70.19688 21.790625 70.68125 22.353125Q71.16563 22.915625 71.93125 22.915625Q72.55625 22.915625 72.9625 22.540625Q73.38438 22.165625 73.50938 21.36875ZM75.44688 16.275L75.44688 15.05625L76.50938 15.05625L76.50938 16.275L75.44688 16.275ZM75.44688 23.65L75.44688 17.43125L76.50938 17.43125L76.50938 23.65L75.44688 23.65ZM78.41563 23.65L78.41563 15.05625L79.47813 15.05625L79.47813 23.65L78.41563 23.65ZM85.69688 21.65L86.79063 21.775Q86.54063 22.728125 85.8375 23.259375Q85.13438 23.790625 84.05625 23.790625Q82.69688 23.790625 81.88438 22.946875Q81.0875 22.103125 81.0875 20.5875Q81.0875 19.025 81.9 18.165625Q82.7125 17.290625 83.99375 17.290625Q85.24375 17.290625 86.025 18.134375Q86.82188 18.978125 86.82188 20.525Q86.82188 20.61875 86.82188 20.80625L82.18125 20.80625Q82.24375 21.8375 82.75938 22.384375Q83.275 22.915625 84.05625 22.915625Q84.63438 22.915625 85.04063 22.61875Q85.4625 22.30625 85.69688 21.65ZM82.24375 19.946875L85.7125 19.946875Q85.65 19.15 85.32188 18.759375Q84.80625 18.15 84.00938 18.15Q83.275 18.15 82.775 18.634375Q82.29063 19.11875 82.24375 19.946875ZM92.47813 23.65L92.47813 22.86875Q91.88438 23.790625 90.74375 23.790625Q89.99375 23.790625 89.36875 23.384375Q88.74375 22.9625 88.4 22.228125Q88.05625 21.49375 88.05625 20.540625Q88.05625 19.61875 88.36875 18.853125Q88.68125 18.0875 89.30625 17.696875Q89.93125 17.290625 90.69688 17.290625Q91.25938 17.290625 91.69688 17.525Q92.13438 17.759375 92.41563 18.134375L92.41563 15.05625L93.4625 15.05625L93.4625 23.65L92.47813 23.65ZM89.15 20.540625Q89.15 21.74375 89.65 22.3375Q90.15 22.915625 90.8375 22.915625Q91.525 22.915625 92.00938 22.353125Q92.49375 21.790625 92.49375 20.634375Q92.49375 19.353125 91.99375 18.759375Q91.50938 18.165625 90.79063 18.165625Q90.0875 18.165625 89.61875 18.74375Q89.15 19.30625 89.15 20.540625Z" fill-rule="nonzero"/><path fill="#ea4335" d="M24.65 43.65C24.65 46.963707 21.963709 49.65 18.65 49.65C15.336291 49.65 12.65 46.963707 12.65 43.65C12.65 40.336292 15.336291 37.65 18.65 37.65C21.963709 37.65 24.65 40.336292 24.65 43.65Z" fill-rule="nonzero"/><path fill="#1a1a1a" d="M39.2125 39.05625L40.353127 39.05625L40.353127 44.025Q40.353127 45.321877 40.05625 46.0875Q39.759377 46.8375 38.99375 47.321877Q38.228127 47.790627 36.99375 47.790627Q35.790627 47.790627 35.009377 47.384377Q34.24375 46.9625 33.915627 46.18125Q33.5875 45.384377 33.5875 44.025L33.5875 39.05625L34.728127 39.05625L34.728127 44.009377Q34.728127 45.134377 34.93125 45.665627Q35.15 46.196877 35.65 46.49375Q36.165627 46.775 36.9 46.775Q38.15 46.775 38.68125 46.2125Q39.2125 45.634377 39.2125 44.009377L39.2125 39.05625ZM42.446877 47.65L42.446877 41.43125L43.384377 41.43125L43.384377 42.30625Q44.071877 41.290627 45.36875 41.290627Q45.93125 41.290627 46.4 41.49375Q46.884377 41.696877 47.11875 42.025Q47.353127 42.353127 47.446877 42.790627Q47.49375 43.0875 47.49375 43.821877L47.49375 47.65L46.446877 47.65L46.446877 43.86875Q46.446877 43.2125 46.321877 42.9Q46.196877 42.5875 45.884377 42.4Q45.571877 42.196877 45.15 42.196877Q44.478127 42.196877 43.978127 42.634377Q43.49375 43.05625 43.49375 44.24375L43.49375 47.65L42.446877 47.65ZM49.43125 47.65L49.43125 41.43125L50.384377 41.43125L50.384377 42.36875Q50.74375 41.7125 51.040627 41.509377Q51.353127 41.290627 51.728127 41.290627Q52.259377 41.290627 52.80625 41.61875L52.446877 42.603127Q52.05625 42.36875 51.68125 42.36875Q51.321877 42.36875 51.040627 42.5875Q50.775 42.790627 50.665627 43.165627Q50.478127 43.728127 50.478127 44.384377L50.478127 47.65L49.43125 47.65ZM57.696877 45.65L58.790627 45.775Q58.540627 46.728127 57.8375 47.259377Q57.134377 47.790627 56.05625 47.790627Q54.696877 47.790627 53.884377 46.946877Q53.0875 46.103127 53.0875 44.5875Q53.0875 43.025 53.9 42.165627Q54.7125 41.290627 55.99375 41.290627Q57.24375 41.290627 58.025 42.134377Q58.821877 42.978127 58.821877 44.525Q58.821877 44.61875 58.821877 44.80625L54.18125 44.80625Q54.24375 45.8375 54.759377 46.384377Q55.275 46.915627 56.05625 46.915627Q56.634377 46.915627 57.040627 46.61875Q57.4625 46.30625 57.696877 45.65ZM54.24375 43.946877L57.7125 43.946877Q57.65 43.15 57.321877 42.759377Q56.80625 42.15 56.009377 42.15Q55.275 42.15 54.775 42.634377Q54.290627 43.11875 54.24375 43.946877ZM64.50938 45.36875L65.54063 45.509377Q65.36875 46.571877 64.66563 47.18125Q63.9625 47.790627 62.946877 47.790627Q61.665627 47.790627 60.884377 46.9625Q60.11875 46.11875 60.11875 44.55625Q60.11875 43.55625 60.446877 42.80625Q60.790627 42.040627 61.4625 41.665627Q62.15 41.290627 62.9625 41.290627Q63.9625 41.290627 64.60313 41.80625Q65.25938 42.30625 65.44688 43.259377L64.41563 43.415627Q64.275 42.790627 63.9 42.478127Q63.525 42.15 62.99375 42.15Q62.196877 42.15 61.696877 42.728127Q61.196877 43.290627 61.196877 44.525Q61.196877 45.790627 61.68125 46.353127Q62.165627 46.915627 62.93125 46.915627Q63.55625 46.915627 63.9625 46.540627Q64.38438 46.165627 64.50938 45.36875ZM66.05625 44.540627Q66.05625 42.80625 67.00938 41.978127Q67.80625 41.290627 68.9625 41.290627Q70.24375 41.290627 71.05625 42.134377Q71.88438 42.9625 71.88438 44.446877Q71.88438 45.65 71.525 46.3375Q71.16563 47.025 70.4625 47.415627Q69.775 47.790627 68.9625 47.790627Q67.66563 47.790627 66.85313 46.9625Q66.05625 46.11875 66.05625 44.540627ZM67.13438 44.540627Q67.13438 45.728127 67.65 46.321877Q68.18125 46.915627 68.9625 46.915627Q69.75938 46.915627 70.275 46.321877Q70.79063 45.728127 70.79063 44.509377Q70.79063 43.353127 70.25938 42.759377Q69.74375 42.165627 68.9625 42.165627Q68.18125 42.165627 67.65 42.759377Q67.13438 43.3375 67.13438 44.540627ZM73.44688 47.65L73.44688 41.43125L74.38438 41.43125L74.38438 42.30625Q75.07188 41.290627 76.36875 41.290627Q76.93125 41.290627 77.4 41.49375Q77.88438 41.696877 78.11875 42.025Q78.35313 42.353127 78.44688 42.790627Q78.49375 43.0875 78.49375 43.821877L78.49375 47.65L77.44688 47.65L77.44688 43.86875Q77.44688 43.2125 77.32188 42.9Q77.19688 42.5875 76.88438 42.4Q76.57188 42.196877 76.15 42.196877Q75.47813 42.196877 74.97813 42.634377Q74.49375 43.05625 74.49375 44.24375L74.49375 47.65L73.44688 47.65ZM84.50938 45.36875L85.54063 45.509377Q85.36875 46.571877 84.66563 47.18125Q83.9625 47.790627 82.94688 47.790627Q81.66563 47.790627 80.88438 46.9625Q80.11875 46.11875 80.11875 44.55625Q80.11875 43.55625 80.44688 42.80625Q80.79063 42.040627 81.4625 41.665627Q82.15 41.290627 82.9625 41.290627Q83.9625 41.290627 84.60313 41.80625Q85.25938 42.30625 85.44688 43.259377L84.41563 43.415627Q84.275 42.790627 83.9 42.478127Q83.525 42.15 82.99375 42.15Q82.19688 42.15 81.69688 42.728127Q81.19688 43.290627 81.19688 44.525Q81.19688 45.790627 81.68125 46.353127Q82.16563 46.915627 82.93125 46.915627Q83.55625 46.915627 83.9625 46.540627Q84.38438 46.165627 84.50938 45.36875ZM86.44688 40.275L86.44688 39.05625L87.50938 39.05625L87.50938 40.275L86.44688 40.275ZM86.44688 47.65L86.44688 41.43125L87.50938 41.43125L87.50938 47.65L86.44688 47.65ZM89.41563 47.65L89.41563 39.05625L90.47813 39.05625L90.47813 47.65L89.41563 47.65ZM96.69688 45.65L97.79063 45.775Q97.54063 46.728127 96.8375 47.259377Q96.13438 47.790627 95.05625 47.790627Q93.69688 47.790627 92.88438 46.946877Q92.0875 46.103127 92.0875 44.5875Q92.0875 43.025 92.9 42.165627Q93.7125 41.290627 94.99375 41.290627Q96.24375 41.290627 97.025 42.134377Q97.82188 42.978127 97.82188 44.525Q97.82188 44.61875 97.82188 44.80625L93.18125 44.80625Q93.24375 45.8375 93.75938 46.384377Q94.275 46.915627 95.05625 46.915627Q95.63438 46.915627 96.04063 46.61875Q96.4625 46.30625 96.69688 45.65ZM93.24375 43.946877L96.7125 43.946877Q96.65 43.15 96.32188 42.759377Q95.80625 42.15 95.00938 42.15Q94.275 42.15 93.775 42.634377Q93.29063 43.11875 93.24375 43.946877ZM103.47813 47.65L103.47813 46.86875Q102.88438 47.790627 101.74375 47.790627Q100.99375 47.790627 100.36875 47.384377Q99.74375 46.9625 99.4 46.228127Q99.05625 45.49375 99.05625 44.540627Q99.05625 43.61875 99.36875 42.853127Q99.68125 42.0875 100.30625 41.696877Q100.93125 41.290627 101.69688 41.290627Q102.25938 41.290627 102.69688 41.525Q103.13438 41.759377 103.41563 42.134377L103.41563 39.05625L104.4625 39.05625L104.4625 47.65L103.47813 47.65ZM100.15 44.540627Q100.15 45.74375 100.65 46.3375Q101.15 46.915627 101.8375 46.915627Q102.525 46.915627 103.00938 46.353127Q103.49375 45.790627 103.49375 44.634377Q103.49375 43.353127 102.99375 42.759377Q102.50938 42.165627 101.79063 42.165627Q101.0875 42.165627 100.61875 42.74375Q100.15 43.30625 100.15 44.540627Z" fill-rule="nonzero"/></svg>